%TF.GenerationSoftware,KiCad,Pcbnew,(6.0.0)*%
%TF.CreationDate,2022-01-30T17:43:53-05:00*%
%TF.ProjectId,fancyGradCap_rev2,66616e63-7947-4726-9164-4361705f7265,1*%
%TF.SameCoordinates,Original*%
%TF.FileFunction,Paste,Bot*%
%TF.FilePolarity,Positive*%
%FSLAX46Y46*%
G04 Gerber Fmt 4.6, Leading zero omitted, Abs format (unit mm)*
G04 Created by KiCad (PCBNEW (6.0.0)) date 2022-01-30 17:43:53*
%MOMM*%
%LPD*%
G01*
G04 APERTURE LIST*
%ADD10R,1.550000X1.300000*%
%ADD11R,6.350000X7.340000*%
%ADD12R,0.700000X1.300000*%
%ADD13R,1.200000X1.400000*%
%ADD14R,1.200000X2.000000*%
%ADD15R,1.250000X2.500000*%
G04 APERTURE END LIST*
D10*
%TO.C,SW4*%
X71025000Y-191020000D03*
X78975000Y-191020000D03*
X78975000Y-186520000D03*
X71025000Y-186520000D03*
%TD*%
%TO.C,SW11*%
X83909000Y-209888000D03*
X91859000Y-209888000D03*
X83909000Y-214388000D03*
X91859000Y-214388000D03*
%TD*%
%TO.C,SW6*%
X83854750Y-191020000D03*
X91804750Y-191020000D03*
X91804750Y-186520000D03*
X83854750Y-186520000D03*
%TD*%
%TO.C,SW5*%
X119140500Y-197968750D03*
X111190500Y-197968750D03*
X119140500Y-202468750D03*
X111190500Y-202468750D03*
%TD*%
%TO.C,SW8*%
X97466750Y-191020000D03*
X105416750Y-191020000D03*
X97466750Y-186520000D03*
X105416750Y-186520000D03*
%TD*%
%TO.C,SW12*%
X124283000Y-186508000D03*
X132233000Y-186508000D03*
X132233000Y-191008000D03*
X124283000Y-191008000D03*
%TD*%
D11*
%TO.C,BT1*%
X5000000Y-70670000D03*
X5000000Y-149330000D03*
%TD*%
%TO.C,BT2*%
X195000000Y-70670000D03*
X195000000Y-149330000D03*
%TD*%
D12*
%TO.C,J3*%
X52330000Y-201012000D03*
X53430000Y-201012000D03*
X54530000Y-201012000D03*
X55630000Y-201012000D03*
X56730000Y-201012000D03*
X57830000Y-201012000D03*
X58930000Y-201012000D03*
X60030000Y-201012000D03*
X61130000Y-201012000D03*
D13*
X47550000Y-201862000D03*
X62230000Y-201862000D03*
D14*
X62650000Y-211562000D03*
X47130000Y-211562000D03*
%TD*%
D10*
%TO.C,SW9*%
X70955000Y-209905500D03*
X78905000Y-209905500D03*
X78905000Y-214405500D03*
X70955000Y-214405500D03*
%TD*%
%TO.C,SW17*%
X105505250Y-197918750D03*
X97555250Y-197918750D03*
X97555250Y-202418750D03*
X105505250Y-202418750D03*
%TD*%
%TO.C,SW10*%
X110936500Y-191020000D03*
X118886500Y-191020000D03*
X118886500Y-186520000D03*
X110936500Y-186520000D03*
%TD*%
%TO.C,SW7*%
X124295000Y-197950000D03*
X132245000Y-197950000D03*
X132245000Y-202450000D03*
X124295000Y-202450000D03*
%TD*%
%TO.C,SW14*%
X79000750Y-198045750D03*
X71050750Y-198045750D03*
X79000750Y-202545750D03*
X71050750Y-202545750D03*
%TD*%
%TO.C,SW13*%
X97625000Y-209888000D03*
X105575000Y-209888000D03*
X97625000Y-214388000D03*
X105575000Y-214388000D03*
%TD*%
%TO.C,SW16*%
X91859000Y-202450000D03*
X83909000Y-202450000D03*
X91859000Y-197950000D03*
X83909000Y-197950000D03*
%TD*%
%TO.C,SW15*%
X119196250Y-209964500D03*
X111246250Y-209964500D03*
X111246250Y-214464500D03*
X119196250Y-214464500D03*
%TD*%
D15*
%TO.C,SW1*%
X184952000Y-8084000D03*
X187452000Y-8084000D03*
X189952000Y-8084000D03*
%TD*%
M02*
