%TF.GenerationSoftware,KiCad,Pcbnew,(6.0.0)*%
%TF.CreationDate,2022-01-30T17:43:54-05:00*%
%TF.ProjectId,fancyGradCap_rev2,66616e63-7947-4726-9164-4361705f7265,1*%
%TF.SameCoordinates,Original*%
%TF.FileFunction,Soldermask,Bot*%
%TF.FilePolarity,Negative*%
%FSLAX46Y46*%
G04 Gerber Fmt 4.6, Leading zero omitted, Abs format (unit mm)*
G04 Created by KiCad (PCBNEW (6.0.0)) date 2022-01-30 17:43:54*
%MOMM*%
%LPD*%
G01*
G04 APERTURE LIST*
G04 Aperture macros list*
%AMRoundRect*
0 Rectangle with rounded corners*
0 $1 Rounding radius*
0 $2 $3 $4 $5 $6 $7 $8 $9 X,Y pos of 4 corners*
0 Add a 4 corners polygon primitive as box body*
4,1,4,$2,$3,$4,$5,$6,$7,$8,$9,$2,$3,0*
0 Add four circle primitives for the rounded corners*
1,1,$1+$1,$2,$3*
1,1,$1+$1,$4,$5*
1,1,$1+$1,$6,$7*
1,1,$1+$1,$8,$9*
0 Add four rect primitives between the rounded corners*
20,1,$1+$1,$2,$3,$4,$5,0*
20,1,$1+$1,$4,$5,$6,$7,0*
20,1,$1+$1,$6,$7,$8,$9,0*
20,1,$1+$1,$8,$9,$2,$3,0*%
G04 Aperture macros list end*
%ADD10C,3.300000*%
%ADD11RoundRect,0.050000X0.775000X0.650000X-0.775000X0.650000X-0.775000X-0.650000X0.775000X-0.650000X0*%
%ADD12C,0.750000*%
%ADD13C,0.700000*%
%ADD14O,2.100000X1.100000*%
%ADD15O,1.700000X0.900000*%
%ADD16RoundRect,0.050000X-0.850000X-0.850000X0.850000X-0.850000X0.850000X0.850000X-0.850000X0.850000X0*%
%ADD17O,1.800000X1.800000*%
%ADD18C,3.550000*%
%ADD19C,2.490000*%
%ADD20RoundRect,0.050000X-3.175000X3.670000X-3.175000X-3.670000X3.175000X-3.670000X3.175000X3.670000X0*%
%ADD21C,2.725000*%
%ADD22C,3.806000*%
%ADD23C,1.100000*%
%ADD24RoundRect,0.050000X0.350000X0.650000X-0.350000X0.650000X-0.350000X-0.650000X0.350000X-0.650000X0*%
%ADD25RoundRect,0.050000X0.600000X0.700000X-0.600000X0.700000X-0.600000X-0.700000X0.600000X-0.700000X0*%
%ADD26RoundRect,0.050000X0.600000X1.000000X-0.600000X1.000000X-0.600000X-1.000000X0.600000X-1.000000X0*%
%ADD27C,1.000000*%
%ADD28RoundRect,0.050000X-0.625000X-1.250000X0.625000X-1.250000X0.625000X1.250000X-0.625000X1.250000X0*%
G04 APERTURE END LIST*
D10*
%TO.C,REF\u002A\u002A*%
X-5000000Y-5000000D03*
%TD*%
%TO.C,REF\u002A\u002A*%
X205000000Y-5000000D03*
%TD*%
%TO.C,REF\u002A\u002A*%
X205000000Y-215000000D03*
%TD*%
%TO.C,REF\u002A\u002A*%
X-5000000Y-215000000D03*
%TD*%
D11*
%TO.C,SW4*%
X71025000Y-191020000D03*
X78975000Y-191020000D03*
X78975000Y-186520000D03*
X71025000Y-186520000D03*
%TD*%
D12*
%TO.C,J1*%
X-2584000Y-197706000D03*
X-2584000Y-190506000D03*
D13*
X-3234000Y-196906000D03*
X-3934000Y-196506000D03*
X-3934000Y-195706000D03*
X-3234000Y-195306000D03*
X-3934000Y-194906000D03*
X-3234000Y-194506000D03*
X-3234000Y-193706000D03*
X-3934000Y-193306000D03*
X-3234000Y-192906000D03*
X-3934000Y-192506000D03*
X-3934000Y-191706000D03*
X-3234000Y-191306000D03*
D14*
X-8284000Y-189566000D03*
X-8284000Y-198546000D03*
D15*
X-3834000Y-198236000D03*
X-3834000Y-189976000D03*
%TD*%
D16*
%TO.C,J2*%
X38354000Y-197099000D03*
D17*
X38354000Y-199639000D03*
%TD*%
D11*
%TO.C,SW11*%
X83909000Y-209888000D03*
X91859000Y-209888000D03*
X83909000Y-214388000D03*
X91859000Y-214388000D03*
%TD*%
%TO.C,SW6*%
X83854750Y-191020000D03*
X91804750Y-191020000D03*
X91804750Y-186520000D03*
X83854750Y-186520000D03*
%TD*%
%TO.C,SW5*%
X119140500Y-197968750D03*
X111190500Y-197968750D03*
X119140500Y-202468750D03*
X111190500Y-202468750D03*
%TD*%
%TO.C,SW8*%
X97466750Y-191020000D03*
X105416750Y-191020000D03*
X97466750Y-186520000D03*
X105416750Y-186520000D03*
%TD*%
%TO.C,SW12*%
X124283000Y-186508000D03*
X132233000Y-186508000D03*
X132233000Y-191008000D03*
X124283000Y-191008000D03*
%TD*%
D18*
%TO.C,BT1*%
X13000000Y-82400000D03*
D19*
X-3000000Y-74070000D03*
D18*
X-3000000Y-137600000D03*
D20*
X5000000Y-70670000D03*
X5000000Y-149330000D03*
%TD*%
D21*
%TO.C,F1*%
X191130000Y-48330000D03*
D22*
X191130000Y-38030000D03*
X200030000Y-38030000D03*
D21*
X200030000Y-48330000D03*
%TD*%
D18*
%TO.C,BT2*%
X187000000Y-137600000D03*
X203000000Y-82400000D03*
D19*
X187000000Y-74070000D03*
D20*
X195000000Y-70670000D03*
X195000000Y-149330000D03*
%TD*%
D23*
%TO.C,J3*%
X59840000Y-211562000D03*
X51840000Y-211562000D03*
D24*
X52330000Y-201012000D03*
X53430000Y-201012000D03*
X54530000Y-201012000D03*
X55630000Y-201012000D03*
X56730000Y-201012000D03*
X57830000Y-201012000D03*
X58930000Y-201012000D03*
X60030000Y-201012000D03*
X61130000Y-201012000D03*
D25*
X47550000Y-201862000D03*
X62230000Y-201862000D03*
D26*
X62650000Y-211562000D03*
X47130000Y-211562000D03*
%TD*%
D11*
%TO.C,SW9*%
X70955000Y-209905500D03*
X78905000Y-209905500D03*
X78905000Y-214405500D03*
X70955000Y-214405500D03*
%TD*%
%TO.C,SW17*%
X105505250Y-197918750D03*
X97555250Y-197918750D03*
X97555250Y-202418750D03*
X105505250Y-202418750D03*
%TD*%
%TO.C,SW10*%
X110936500Y-191020000D03*
X118886500Y-191020000D03*
X118886500Y-186520000D03*
X110936500Y-186520000D03*
%TD*%
%TO.C,SW7*%
X124295000Y-197950000D03*
X132245000Y-197950000D03*
X132245000Y-202450000D03*
X124295000Y-202450000D03*
%TD*%
%TO.C,SW14*%
X79000750Y-198045750D03*
X71050750Y-198045750D03*
X79000750Y-202545750D03*
X71050750Y-202545750D03*
%TD*%
%TO.C,SW13*%
X97625000Y-209888000D03*
X105575000Y-209888000D03*
X97625000Y-214388000D03*
X105575000Y-214388000D03*
%TD*%
%TO.C,SW16*%
X91859000Y-202450000D03*
X83909000Y-202450000D03*
X91859000Y-197950000D03*
X83909000Y-197950000D03*
%TD*%
%TO.C,SW15*%
X119196250Y-209964500D03*
X111246250Y-209964500D03*
X111246250Y-214464500D03*
X119196250Y-214464500D03*
%TD*%
D27*
%TO.C,SW1*%
X190852000Y-5334000D03*
X184052000Y-5334000D03*
D28*
X184952000Y-8084000D03*
X187452000Y-8084000D03*
X189952000Y-8084000D03*
%TD*%
G36*
X61531902Y-201011384D02*
G01*
X61550799Y-201069543D01*
X61599886Y-201105207D01*
X61630310Y-201110026D01*
X61631864Y-201111284D01*
X61631551Y-201113260D01*
X61630387Y-201113963D01*
X61611645Y-201117691D01*
X61596087Y-201128087D01*
X61585691Y-201143645D01*
X61582000Y-201162199D01*
X61582000Y-201811998D01*
X61581000Y-201813730D01*
X61579000Y-201813730D01*
X61578098Y-201812616D01*
X61559201Y-201754457D01*
X61510114Y-201718793D01*
X61479690Y-201713974D01*
X61478136Y-201712716D01*
X61478449Y-201710740D01*
X61479613Y-201710037D01*
X61498355Y-201706309D01*
X61513913Y-201695913D01*
X61524309Y-201680355D01*
X61528000Y-201661801D01*
X61528000Y-201012002D01*
X61529000Y-201010270D01*
X61531000Y-201010270D01*
X61531902Y-201011384D01*
G37*
G36*
X-3583277Y-196507831D02*
G01*
X-3582556Y-196509102D01*
X-3582429Y-196509989D01*
X-3582437Y-196510604D01*
X-3584510Y-196522930D01*
X-3575572Y-196583104D01*
X-3533201Y-196626297D01*
X-3473424Y-196636355D01*
X-3445420Y-196625968D01*
X-3443448Y-196626303D01*
X-3442752Y-196628178D01*
X-3443310Y-196629257D01*
X-3515517Y-196701464D01*
X-3564945Y-196798471D01*
X-3578994Y-196887174D01*
X-3580252Y-196888728D01*
X-3582228Y-196888415D01*
X-3582944Y-196887179D01*
X-3592501Y-196827852D01*
X-3635396Y-196785181D01*
X-3695305Y-196775854D01*
X-3722483Y-196785935D01*
X-3724455Y-196785600D01*
X-3725151Y-196783725D01*
X-3724593Y-196782646D01*
X-3652483Y-196710536D01*
X-3603055Y-196613529D01*
X-3586511Y-196509072D01*
X-3585253Y-196507518D01*
X-3583277Y-196507831D01*
G37*
G36*
X-4106111Y-196004039D02*
G01*
X-4041529Y-196036945D01*
X-3934000Y-196053975D01*
X-3826471Y-196036945D01*
X-3768376Y-196007344D01*
X-3766379Y-196007449D01*
X-3765471Y-196009231D01*
X-3766422Y-196010830D01*
X-3784110Y-196021691D01*
X-3823581Y-196067988D01*
X-3828277Y-196128308D01*
X-3796481Y-196180093D01*
X-3786348Y-196187645D01*
X-3761993Y-196203432D01*
X-3761084Y-196205213D01*
X-3762171Y-196206891D01*
X-3763989Y-196206892D01*
X-3826471Y-196175055D01*
X-3934000Y-196158025D01*
X-4041529Y-196175055D01*
X-4101848Y-196205789D01*
X-4103845Y-196205684D01*
X-4104753Y-196203902D01*
X-4103823Y-196202316D01*
X-4083910Y-196189752D01*
X-4045008Y-196142978D01*
X-4041050Y-196082602D01*
X-4073482Y-196031201D01*
X-4081679Y-196025091D01*
X-4108127Y-196007486D01*
X-4109015Y-196005694D01*
X-4107907Y-196004029D01*
X-4106111Y-196004039D01*
G37*
G36*
X-3578747Y-195330486D02*
G01*
X-3577883Y-195331836D01*
X-3564945Y-195413529D01*
X-3515517Y-195510536D01*
X-3442095Y-195583958D01*
X-3441577Y-195585890D01*
X-3442991Y-195587304D01*
X-3444049Y-195587298D01*
X-3492970Y-195573593D01*
X-3549696Y-195594633D01*
X-3583286Y-195645094D01*
X-3585740Y-195682542D01*
X-3586851Y-195684205D01*
X-3588847Y-195684074D01*
X-3589711Y-195682724D01*
X-3603055Y-195598471D01*
X-3652483Y-195501464D01*
X-3725620Y-195428327D01*
X-3726138Y-195426395D01*
X-3724724Y-195424981D01*
X-3723690Y-195424981D01*
X-3673511Y-195438379D01*
X-3617044Y-195416647D01*
X-3584067Y-195365769D01*
X-3581854Y-195332018D01*
X-3580743Y-195330355D01*
X-3578747Y-195330486D01*
G37*
G36*
X-4106111Y-195204039D02*
G01*
X-4041529Y-195236945D01*
X-3934000Y-195253975D01*
X-3826471Y-195236945D01*
X-3768377Y-195207344D01*
X-3766380Y-195207449D01*
X-3765472Y-195209231D01*
X-3766422Y-195210830D01*
X-3784112Y-195221692D01*
X-3823582Y-195267988D01*
X-3828276Y-195328309D01*
X-3796480Y-195380093D01*
X-3786348Y-195387645D01*
X-3761992Y-195403432D01*
X-3761083Y-195405213D01*
X-3762170Y-195406891D01*
X-3763988Y-195406892D01*
X-3826471Y-195375055D01*
X-3934000Y-195358025D01*
X-4041529Y-195375055D01*
X-4101848Y-195405789D01*
X-4103845Y-195405684D01*
X-4104753Y-195403902D01*
X-4103823Y-195402316D01*
X-4083910Y-195389752D01*
X-4045008Y-195342978D01*
X-4041050Y-195282602D01*
X-4073482Y-195231201D01*
X-4081679Y-195225091D01*
X-4108127Y-195207486D01*
X-4109015Y-195205694D01*
X-4107907Y-195204029D01*
X-4106111Y-195204039D01*
G37*
G36*
X-3583276Y-194907827D02*
G01*
X-3582555Y-194909098D01*
X-3582428Y-194909988D01*
X-3582436Y-194910603D01*
X-3584510Y-194922930D01*
X-3575572Y-194983104D01*
X-3533201Y-195026297D01*
X-3473424Y-195036355D01*
X-3445420Y-195025969D01*
X-3443449Y-195026304D01*
X-3442753Y-195028179D01*
X-3443311Y-195029258D01*
X-3515517Y-195101464D01*
X-3564945Y-195198471D01*
X-3578994Y-195287174D01*
X-3580252Y-195288728D01*
X-3582228Y-195288415D01*
X-3582944Y-195287179D01*
X-3592501Y-195227852D01*
X-3635396Y-195185181D01*
X-3695305Y-195175854D01*
X-3722483Y-195185935D01*
X-3724455Y-195185600D01*
X-3725151Y-195183725D01*
X-3724593Y-195182646D01*
X-3652483Y-195110536D01*
X-3603055Y-195013529D01*
X-3586510Y-194909068D01*
X-3585252Y-194907514D01*
X-3583276Y-194907827D01*
G37*
G36*
X-3406111Y-194804038D02*
G01*
X-3341529Y-194836945D01*
X-3234000Y-194853975D01*
X-3126471Y-194836945D01*
X-3068376Y-194807344D01*
X-3066379Y-194807449D01*
X-3065471Y-194809231D01*
X-3066422Y-194810830D01*
X-3084110Y-194821691D01*
X-3123581Y-194867988D01*
X-3128277Y-194928308D01*
X-3096481Y-194980093D01*
X-3086348Y-194987645D01*
X-3061993Y-195003432D01*
X-3061084Y-195005213D01*
X-3062171Y-195006891D01*
X-3063989Y-195006892D01*
X-3126471Y-194975055D01*
X-3234000Y-194958025D01*
X-3341529Y-194975055D01*
X-3401846Y-195005788D01*
X-3403843Y-195005683D01*
X-3404751Y-195003901D01*
X-3403821Y-195002315D01*
X-3383911Y-194989753D01*
X-3345008Y-194942979D01*
X-3341050Y-194882603D01*
X-3373482Y-194831201D01*
X-3381679Y-194825091D01*
X-3408127Y-194807485D01*
X-3409015Y-194805693D01*
X-3407907Y-194804028D01*
X-3406111Y-194804038D01*
G37*
G36*
X-3578747Y-194530486D02*
G01*
X-3577883Y-194531836D01*
X-3564945Y-194613529D01*
X-3515517Y-194710536D01*
X-3442095Y-194783958D01*
X-3441577Y-194785890D01*
X-3442991Y-194787304D01*
X-3444049Y-194787298D01*
X-3492970Y-194773593D01*
X-3549696Y-194794633D01*
X-3583286Y-194845094D01*
X-3585740Y-194882542D01*
X-3586851Y-194884205D01*
X-3588847Y-194884074D01*
X-3589711Y-194882724D01*
X-3603055Y-194798471D01*
X-3652483Y-194701464D01*
X-3725620Y-194628327D01*
X-3726138Y-194626395D01*
X-3724724Y-194624981D01*
X-3723690Y-194624981D01*
X-3673511Y-194638379D01*
X-3617044Y-194616647D01*
X-3584067Y-194565769D01*
X-3581854Y-194532018D01*
X-3580743Y-194530355D01*
X-3578747Y-194530486D01*
G37*
G36*
X-3406111Y-194004039D02*
G01*
X-3341529Y-194036945D01*
X-3234000Y-194053975D01*
X-3126471Y-194036945D01*
X-3068376Y-194007344D01*
X-3066379Y-194007449D01*
X-3065471Y-194009231D01*
X-3066422Y-194010830D01*
X-3084110Y-194021691D01*
X-3123581Y-194067988D01*
X-3128277Y-194128308D01*
X-3096481Y-194180093D01*
X-3086348Y-194187645D01*
X-3061993Y-194203432D01*
X-3061084Y-194205213D01*
X-3062171Y-194206891D01*
X-3063989Y-194206892D01*
X-3126471Y-194175055D01*
X-3234000Y-194158025D01*
X-3341529Y-194175055D01*
X-3401848Y-194205789D01*
X-3403845Y-194205684D01*
X-3404753Y-194203902D01*
X-3403823Y-194202316D01*
X-3383910Y-194189752D01*
X-3345008Y-194142978D01*
X-3341050Y-194082602D01*
X-3373482Y-194031201D01*
X-3381679Y-194025091D01*
X-3408127Y-194007486D01*
X-3409015Y-194005694D01*
X-3407907Y-194004029D01*
X-3406111Y-194004039D01*
G37*
G36*
X-3583276Y-193307827D02*
G01*
X-3582555Y-193309098D01*
X-3582428Y-193309988D01*
X-3582436Y-193310603D01*
X-3584510Y-193322930D01*
X-3575572Y-193383104D01*
X-3533201Y-193426297D01*
X-3473424Y-193436355D01*
X-3445420Y-193425969D01*
X-3443449Y-193426304D01*
X-3442753Y-193428179D01*
X-3443311Y-193429258D01*
X-3515517Y-193501464D01*
X-3564945Y-193598471D01*
X-3578994Y-193687174D01*
X-3580252Y-193688728D01*
X-3582228Y-193688415D01*
X-3582944Y-193687179D01*
X-3592501Y-193627852D01*
X-3635396Y-193585181D01*
X-3695305Y-193575854D01*
X-3722483Y-193585935D01*
X-3724455Y-193585600D01*
X-3725151Y-193583725D01*
X-3724593Y-193582646D01*
X-3652483Y-193510536D01*
X-3603055Y-193413529D01*
X-3586510Y-193309068D01*
X-3585252Y-193307514D01*
X-3583276Y-193307827D01*
G37*
G36*
X-3406111Y-193204038D02*
G01*
X-3341529Y-193236945D01*
X-3234000Y-193253975D01*
X-3126471Y-193236945D01*
X-3068376Y-193207344D01*
X-3066379Y-193207449D01*
X-3065471Y-193209231D01*
X-3066422Y-193210830D01*
X-3084110Y-193221691D01*
X-3123581Y-193267988D01*
X-3128277Y-193328308D01*
X-3096481Y-193380093D01*
X-3086348Y-193387645D01*
X-3061993Y-193403432D01*
X-3061084Y-193405213D01*
X-3062171Y-193406891D01*
X-3063989Y-193406892D01*
X-3126471Y-193375055D01*
X-3234000Y-193358025D01*
X-3341529Y-193375055D01*
X-3401846Y-193405788D01*
X-3403843Y-193405683D01*
X-3404751Y-193403901D01*
X-3403821Y-193402315D01*
X-3383911Y-193389753D01*
X-3345008Y-193342979D01*
X-3341050Y-193282603D01*
X-3373482Y-193231201D01*
X-3381679Y-193225091D01*
X-3408127Y-193207485D01*
X-3409015Y-193205693D01*
X-3407907Y-193204028D01*
X-3406111Y-193204038D01*
G37*
G36*
X-3578747Y-192930486D02*
G01*
X-3577883Y-192931836D01*
X-3564945Y-193013529D01*
X-3515517Y-193110536D01*
X-3442095Y-193183958D01*
X-3441577Y-193185890D01*
X-3442991Y-193187304D01*
X-3444049Y-193187298D01*
X-3492970Y-193173593D01*
X-3549696Y-193194633D01*
X-3583286Y-193245094D01*
X-3585740Y-193282542D01*
X-3586851Y-193284205D01*
X-3588847Y-193284074D01*
X-3589711Y-193282724D01*
X-3603055Y-193198471D01*
X-3652483Y-193101464D01*
X-3725620Y-193028327D01*
X-3726138Y-193026395D01*
X-3724724Y-193024981D01*
X-3723690Y-193024981D01*
X-3673511Y-193038379D01*
X-3617044Y-193016647D01*
X-3584067Y-192965769D01*
X-3581854Y-192932018D01*
X-3580743Y-192930355D01*
X-3578747Y-192930486D01*
G37*
G36*
X-4106111Y-192804039D02*
G01*
X-4041529Y-192836945D01*
X-3934000Y-192853975D01*
X-3826471Y-192836945D01*
X-3768377Y-192807344D01*
X-3766380Y-192807449D01*
X-3765472Y-192809231D01*
X-3766422Y-192810830D01*
X-3784112Y-192821692D01*
X-3823582Y-192867988D01*
X-3828276Y-192928309D01*
X-3796480Y-192980093D01*
X-3786348Y-192987645D01*
X-3761992Y-193003432D01*
X-3761083Y-193005213D01*
X-3762170Y-193006891D01*
X-3763988Y-193006892D01*
X-3826471Y-192975055D01*
X-3934000Y-192958025D01*
X-4041529Y-192975055D01*
X-4101848Y-193005789D01*
X-4103845Y-193005684D01*
X-4104753Y-193003902D01*
X-4103823Y-193002316D01*
X-4083910Y-192989752D01*
X-4045008Y-192942978D01*
X-4041050Y-192882602D01*
X-4073482Y-192831201D01*
X-4081679Y-192825091D01*
X-4108127Y-192807486D01*
X-4109015Y-192805694D01*
X-4107907Y-192804029D01*
X-4106111Y-192804039D01*
G37*
G36*
X-3583277Y-192507831D02*
G01*
X-3582556Y-192509102D01*
X-3582429Y-192509989D01*
X-3582437Y-192510604D01*
X-3584510Y-192522930D01*
X-3575572Y-192583104D01*
X-3533201Y-192626297D01*
X-3473424Y-192636355D01*
X-3445420Y-192625968D01*
X-3443448Y-192626303D01*
X-3442752Y-192628178D01*
X-3443310Y-192629257D01*
X-3515517Y-192701464D01*
X-3564945Y-192798471D01*
X-3578994Y-192887174D01*
X-3580252Y-192888728D01*
X-3582228Y-192888415D01*
X-3582944Y-192887179D01*
X-3592501Y-192827852D01*
X-3635396Y-192785181D01*
X-3695305Y-192775854D01*
X-3722483Y-192785935D01*
X-3724455Y-192785600D01*
X-3725151Y-192783725D01*
X-3724593Y-192782646D01*
X-3652483Y-192710536D01*
X-3603055Y-192613529D01*
X-3586511Y-192509072D01*
X-3585253Y-192507518D01*
X-3583277Y-192507831D01*
G37*
G36*
X-4106111Y-192004039D02*
G01*
X-4041529Y-192036945D01*
X-3934000Y-192053975D01*
X-3826471Y-192036945D01*
X-3768376Y-192007344D01*
X-3766379Y-192007449D01*
X-3765471Y-192009231D01*
X-3766422Y-192010830D01*
X-3784110Y-192021691D01*
X-3823581Y-192067988D01*
X-3828277Y-192128308D01*
X-3796481Y-192180093D01*
X-3786348Y-192187645D01*
X-3761993Y-192203432D01*
X-3761084Y-192205213D01*
X-3762171Y-192206891D01*
X-3763989Y-192206892D01*
X-3826471Y-192175055D01*
X-3934000Y-192158025D01*
X-4041529Y-192175055D01*
X-4101848Y-192205789D01*
X-4103845Y-192205684D01*
X-4104753Y-192203902D01*
X-4103823Y-192202316D01*
X-4083910Y-192189752D01*
X-4045008Y-192142978D01*
X-4041050Y-192082602D01*
X-4073482Y-192031201D01*
X-4081679Y-192025091D01*
X-4108127Y-192007486D01*
X-4109015Y-192005694D01*
X-4107907Y-192004029D01*
X-4106111Y-192004039D01*
G37*
G36*
X-3578747Y-191330486D02*
G01*
X-3577883Y-191331836D01*
X-3564945Y-191413529D01*
X-3515517Y-191510536D01*
X-3442095Y-191583958D01*
X-3441577Y-191585890D01*
X-3442991Y-191587304D01*
X-3444049Y-191587298D01*
X-3492970Y-191573593D01*
X-3549696Y-191594633D01*
X-3583286Y-191645094D01*
X-3585740Y-191682542D01*
X-3586851Y-191684205D01*
X-3588847Y-191684074D01*
X-3589711Y-191682724D01*
X-3603055Y-191598471D01*
X-3652483Y-191501464D01*
X-3725620Y-191428327D01*
X-3726138Y-191426395D01*
X-3724724Y-191424981D01*
X-3723690Y-191424981D01*
X-3673511Y-191438379D01*
X-3617044Y-191416647D01*
X-3584067Y-191365769D01*
X-3581854Y-191332018D01*
X-3580743Y-191330355D01*
X-3578747Y-191330486D01*
G37*
M02*
