%TF.GenerationSoftware,KiCad,Pcbnew,(6.0.0)*%
%TF.CreationDate,2022-01-30T17:43:54-05:00*%
%TF.ProjectId,fancyGradCap_rev2,66616e63-7947-4726-9164-4361705f7265,1*%
%TF.SameCoordinates,Original*%
%TF.FileFunction,Other,User*%
%FSLAX46Y46*%
G04 Gerber Fmt 4.6, Leading zero omitted, Abs format (unit mm)*
G04 Created by KiCad (PCBNEW (6.0.0)) date 2022-01-30 17:43:54*
%MOMM*%
%LPD*%
G01*
G04 APERTURE LIST*
%ADD10C,0.050000*%
%ADD11C,0.100000*%
G04 APERTURE END LIST*
D10*
%TO.C,SW4*%
X80000000Y-185520000D02*
X70000000Y-185520000D01*
X70000000Y-192020000D02*
X70000000Y-185520000D01*
X80000000Y-185520000D02*
X80000000Y-192020000D01*
X80000000Y-192020000D02*
X70000000Y-192020000D01*
%TO.C,SW11*%
X82884000Y-215388000D02*
X82884000Y-208888000D01*
X92884000Y-215388000D02*
X82884000Y-215388000D01*
X92884000Y-208888000D02*
X82884000Y-208888000D01*
X92884000Y-208888000D02*
X92884000Y-215388000D01*
%TO.C,SW6*%
X92829750Y-192020000D02*
X82829750Y-192020000D01*
X92829750Y-185520000D02*
X82829750Y-185520000D01*
X92829750Y-185520000D02*
X92829750Y-192020000D01*
X82829750Y-192020000D02*
X82829750Y-185520000D01*
%TO.C,SW5*%
X120165500Y-203468750D02*
X110165500Y-203468750D01*
X120165500Y-196968750D02*
X120165500Y-203468750D01*
X110165500Y-203468750D02*
X110165500Y-196968750D01*
X120165500Y-196968750D02*
X110165500Y-196968750D01*
%TO.C,SW8*%
X106441750Y-192020000D02*
X96441750Y-192020000D01*
X106441750Y-185520000D02*
X106441750Y-192020000D01*
X106441750Y-185520000D02*
X96441750Y-185520000D01*
X96441750Y-192020000D02*
X96441750Y-185520000D01*
%TO.C,SW12*%
X133258000Y-192008000D02*
X123258000Y-192008000D01*
X133258000Y-185508000D02*
X133258000Y-192008000D01*
X133258000Y-185508000D02*
X123258000Y-185508000D01*
X123258000Y-192008000D02*
X123258000Y-185508000D01*
%TO.C,BT1*%
X-5830000Y-149030000D02*
X1320000Y-149030000D01*
X15830000Y-70970000D02*
X15830000Y-149030000D01*
X-5830000Y-70970000D02*
X-5830000Y-149030000D01*
X8680000Y-153500000D02*
X1320000Y-153500000D01*
X8680000Y-149030000D02*
X8680000Y-153500000D01*
X-5830000Y-70970000D02*
X1320000Y-70970000D01*
X8680000Y-70970000D02*
X8680000Y-66500000D01*
X1320000Y-66500000D02*
X1320000Y-70970000D01*
X15830000Y-70970000D02*
X8680000Y-70970000D01*
X15830000Y-149030000D02*
X8680000Y-149030000D01*
X8680000Y-66500000D02*
X1320000Y-66500000D01*
X1320000Y-153500000D02*
X1320000Y-149030000D01*
%TO.C,F1*%
X206230000Y-35920000D02*
X184930000Y-35920000D01*
X184930000Y-35920000D02*
X184930000Y-49890000D01*
X184930000Y-49890000D02*
X206230000Y-49890000D01*
X206230000Y-49890000D02*
X206230000Y-35920000D01*
%TO.C,BT2*%
X198680000Y-153500000D02*
X191320000Y-153500000D01*
X205830000Y-149030000D02*
X198680000Y-149030000D01*
X191320000Y-66500000D02*
X191320000Y-70970000D01*
X205830000Y-70970000D02*
X198680000Y-70970000D01*
X184170000Y-70970000D02*
X191320000Y-70970000D01*
X198680000Y-70970000D02*
X198680000Y-66500000D01*
X205830000Y-70970000D02*
X205830000Y-149030000D01*
X198680000Y-66500000D02*
X191320000Y-66500000D01*
X184170000Y-149030000D02*
X191320000Y-149030000D01*
X184170000Y-70970000D02*
X184170000Y-149030000D01*
X191320000Y-153500000D02*
X191320000Y-149030000D01*
X198680000Y-149030000D02*
X198680000Y-153500000D01*
D11*
%TO.C,J3*%
X45530000Y-199362000D02*
X45530000Y-216512000D01*
X64250000Y-216512000D02*
X64250000Y-199362000D01*
X64250000Y-199362000D02*
X45530000Y-199362000D01*
X45530000Y-216512000D02*
X64250000Y-216512000D01*
D10*
%TO.C,SW9*%
X79930000Y-208905500D02*
X69930000Y-208905500D01*
X79930000Y-208905500D02*
X79930000Y-215405500D01*
X79930000Y-215405500D02*
X69930000Y-215405500D01*
X69930000Y-215405500D02*
X69930000Y-208905500D01*
%TO.C,SW17*%
X106530250Y-196918750D02*
X96530250Y-196918750D01*
X96530250Y-203418750D02*
X96530250Y-196918750D01*
X106530250Y-203418750D02*
X96530250Y-203418750D01*
X106530250Y-196918750D02*
X106530250Y-203418750D01*
%TO.C,SW10*%
X119911500Y-192020000D02*
X109911500Y-192020000D01*
X119911500Y-185520000D02*
X119911500Y-192020000D01*
X109911500Y-192020000D02*
X109911500Y-185520000D01*
X119911500Y-185520000D02*
X109911500Y-185520000D01*
%TO.C,SW7*%
X133270000Y-196950000D02*
X123270000Y-196950000D01*
X123270000Y-203450000D02*
X123270000Y-196950000D01*
X133270000Y-196950000D02*
X133270000Y-203450000D01*
X133270000Y-203450000D02*
X123270000Y-203450000D01*
%TO.C,SW14*%
X70025750Y-203545750D02*
X70025750Y-197045750D01*
X80025750Y-197045750D02*
X70025750Y-197045750D01*
X80025750Y-197045750D02*
X80025750Y-203545750D01*
X80025750Y-203545750D02*
X70025750Y-203545750D01*
%TO.C,SW13*%
X106600000Y-215388000D02*
X96600000Y-215388000D01*
X106600000Y-208888000D02*
X96600000Y-208888000D01*
X106600000Y-208888000D02*
X106600000Y-215388000D01*
X96600000Y-215388000D02*
X96600000Y-208888000D01*
%TO.C,SW16*%
X92884000Y-196950000D02*
X82884000Y-196950000D01*
X92884000Y-203450000D02*
X82884000Y-203450000D01*
X82884000Y-203450000D02*
X82884000Y-196950000D01*
X92884000Y-196950000D02*
X92884000Y-203450000D01*
%TO.C,SW15*%
X120221250Y-208964500D02*
X120221250Y-215464500D01*
X120221250Y-215464500D02*
X110221250Y-215464500D01*
X120221250Y-208964500D02*
X110221250Y-208964500D01*
X110221250Y-215464500D02*
X110221250Y-208964500D01*
%TO.C,SW1*%
X189952000Y-1084000D02*
X189952000Y-2834000D01*
X184952000Y-2584000D02*
X184952000Y-1084000D01*
X190952000Y-7584000D02*
X190952000Y-9834000D01*
X183952000Y-9834000D02*
X183952000Y-7584000D01*
X182452000Y-7584000D02*
X182452000Y-3084000D01*
X190702000Y-3084000D02*
X192452000Y-3084000D01*
X190702000Y-2834000D02*
X190702000Y-3084000D01*
X184202000Y-3084000D02*
X184202000Y-2584000D01*
X189952000Y-2834000D02*
X190702000Y-2834000D01*
X182452000Y-3084000D02*
X184202000Y-3084000D01*
X183952000Y-7584000D02*
X182452000Y-7584000D01*
X184952000Y-1084000D02*
X189952000Y-1084000D01*
X184202000Y-2584000D02*
X184952000Y-2584000D01*
X182452000Y-7584000D02*
X182452000Y-7584000D01*
X192452000Y-3084000D02*
X192452000Y-7584000D01*
X190952000Y-9834000D02*
X183952000Y-9834000D01*
X192452000Y-7584000D02*
X190952000Y-7584000D01*
%TD*%
M02*
