M48
; DRILL file {KiCad (6.0.0)} date Sun Jan 30 17:44:44 2022
; FORMAT={-:-/ absolute / metric / decimal}
; #@! TF.CreationDate,2022-01-30T17:44:44-05:00
; #@! TF.GenerationSoftware,Kicad,Pcbnew,(6.0.0)
; #@! TF.FileFunction,Plated,1,4,PTH
FMAT,2
METRIC
; #@! TA.AperFunction,Plated,PTH,ViaDrill
T1C0.400
; #@! TA.AperFunction,Plated,PTH,ComponentDrill
T2C0.400
; #@! TA.AperFunction,Plated,PTH,ComponentDrill
T3C0.500
; #@! TA.AperFunction,Plated,PTH,ComponentDrill
T4C1.000
; #@! TA.AperFunction,Plated,PTH,ComponentDrill
T5C1.750
; #@! TA.AperFunction,Plated,PTH,ComponentDrill
T6C2.690
%
G90
G05
T1
X-9.159Y-157.467
X-8.2Y-161.036
X-8.128Y-162.052
X-7.874Y-27.94
X-7.62Y-24.384
X-7.62Y-176.784
X-7.366Y-38.608
X-7.366Y-48.768
X-7.324Y-30.897
X-7.162Y-40.057
X-7.162Y-57.329
X-7.112Y-32.004
X-7.112Y-55.372
X-6.935Y-46.97
X-6.928Y-44.362
X-6.858Y-29.843
X-6.858Y-33.02
X-6.858Y-54.356
X-6.858Y-162.306
X-6.858Y-45.974
X-6.608Y-40.89
X-6.608Y-49.526
X-6.608Y-58.162
X-6.605Y-27.883
X-6.604Y-35.83
X-6.604Y-36.829
X-6.604Y-37.829
X-6.604Y-41.91
X-6.604Y-47.914
X-6.604Y-50.546
X-6.604Y-52.34
X-6.604Y-53.34
X-6.604Y-56.388
X-6.604Y-26.883
X-6.583Y-28.882
X-6.532Y-39.278
X-6.405Y-31.292
X-6.304Y-45.142
X-5.08Y-185.42
X-4.318Y-200.66
X-4.064Y-186.436
X-3.048Y-186.436
X-2.794Y-18.542
X-2.54Y-32.766
X-2.289Y-142.685
X-2.032Y-150.622
X-1.858Y-104.954
X-1.778Y-37.846
X-1.778Y-46.736
X-1.778Y-55.118
X-1.778Y-96.774
X-1.27Y-13.462
X-1.016Y-30.988
X-1.016Y-32.512
X-1.016Y-39.878
X-1.016Y-49.784
X-1.016Y-181.864
X-1.016Y-182.88
X-1.016Y-183.896
X-0.978Y-120.492
X-0.893Y-48.637
X-0.889Y-58.293
X-0.762Y-56.896
X-0.588Y-113.163
X-0.588Y-128.896
X-0.508Y-42.926
X-0.019Y-22.857
X0.0Y-181.864
X0.0Y-182.88
X0.0Y-183.896
X0.478Y-18.388
X0.762Y-202.438
X1.016Y-165.608
X1.524Y-76.708
X1.524Y-78.74
X1.524Y-142.24
X1.524Y-144.272
X1.524Y-174.244
X2.032Y-75.692
X2.032Y-77.724
X2.032Y-141.224
X2.032Y-143.256
X2.032Y-179.324
X2.286Y-197.358
X2.54Y-190.5
X2.726Y-155.077
X2.794Y-13.424
X3.048Y-2.794
X3.048Y-76.708
X3.048Y-78.74
X3.048Y-142.24
X3.048Y-144.272
X3.048Y-179.324
X3.556Y-8.382
X3.556Y-75.692
X3.556Y-77.724
X3.556Y-137.16
X3.556Y-141.224
X3.556Y-143.256
X4.064Y-180.34
X4.318Y-18.288
X4.318Y-23.114
X4.572Y-76.708
X4.572Y-78.74
X4.572Y-142.24
X4.572Y-144.272
X5.08Y-75.692
X5.08Y-77.724
X5.08Y-141.224
X5.08Y-143.256
X5.588Y-191.262
X5.588Y-196.85
X5.842Y-137.922
X6.096Y-5.588
X6.096Y-16.002
X6.096Y-20.828
X6.096Y-25.908
X6.096Y-76.708
X6.096Y-78.74
X6.096Y-142.24
X6.096Y-144.272
X6.35Y-10.922
X6.35Y-30.48
X6.35Y-56.388
X6.35Y-214.376
X6.35Y-217.424
X6.604Y-75.692
X6.604Y-77.724
X6.604Y-141.224
X6.604Y-143.256
X6.858Y-87.884
X6.858Y-202.438
X6.954Y-57.404
X7.112Y-137.668
X7.366Y-62.484
X7.366Y-83.566
X7.366Y-210.312
X7.62Y-76.708
X7.62Y-78.74
X7.62Y-92.71
X7.62Y-142.24
X7.874Y-37.592
X7.874Y-208.026
X8.128Y-32.766
X8.128Y-42.418
X8.128Y-75.692
X8.128Y-77.724
X8.382Y-157.48
X8.636Y-52.578
X8.636Y-62.484
X8.636Y-97.536
X8.636Y-127.508
X8.636Y-132.588
X8.636Y-137.414
X8.636Y-204.724
X8.89Y-47.498
X8.89Y-57.404
X8.89Y-102.616
X8.89Y-107.442
X8.89Y-112.522
X8.89Y-117.602
X8.89Y-122.428
X9.144Y-198.374
X9.652Y-80.264
X10.16Y-7.62
X10.16Y-12.7
X10.16Y-17.78
X10.16Y-22.86
X10.16Y-27.94
X10.16Y-33.02
X10.16Y-38.1
X10.16Y-43.18
X10.16Y-47.752
X10.16Y-52.832
X10.16Y-57.912
X10.16Y-62.484
X10.16Y-67.564
X10.16Y-83.82
X10.16Y-87.884
X10.16Y-92.456
X10.16Y-97.536
X10.16Y-102.616
X10.16Y-107.696
X10.16Y-112.776
X10.16Y-117.856
X10.16Y-122.428
X10.16Y-127.508
X10.16Y-132.588
X10.16Y-137.668
X10.16Y-157.48
X10.668Y-147.574
X10.668Y-152.4
X11.176Y-72.644
X11.176Y-142.494
X11.43Y-192.532
X12.103Y-179.233
X12.192Y-215.646
X12.353Y-180.201
X12.908Y-181.032
X13.208Y-166.37
X13.462Y-181.864
X13.462Y-206.248
X13.97Y-174.498
X14.478Y-189.738
X14.625Y-206.325
X15.494Y-210.82
X15.494Y-214.376
X16.256Y-178.308
X16.51Y-194.49
X16.51Y-196.014
X16.51Y-197.401
X17.272Y-179.07
X18.034Y-179.832
X18.034Y-194.49
X18.034Y-196.014
X18.288Y-7.112
X18.288Y-12.192
X18.288Y-17.272
X18.288Y-22.352
X18.288Y-27.432
X18.288Y-32.512
X18.288Y-37.592
X18.288Y-42.164
X18.288Y-47.244
X18.288Y-52.324
X18.288Y-57.404
X18.288Y-62.484
X18.288Y-67.564
X18.288Y-72.644
X18.288Y-77.724
X18.288Y-92.456
X18.288Y-97.536
X18.288Y-102.616
X18.288Y-107.696
X18.288Y-112.776
X18.288Y-117.348
X18.288Y-122.428
X18.288Y-127.508
X18.288Y-132.588
X18.288Y-137.668
X18.288Y-142.748
X18.288Y-147.828
X18.288Y-152.4
X18.288Y-157.48
X18.542Y-184.15
X18.796Y-87.884
X18.796Y-162.052
X19.05Y-180.594
X19.05Y-212.852
X19.304Y-204.978
X19.558Y-211.582
X20.0Y-6.35
X20.0Y-11.35
X20.0Y-16.35
X20.0Y-21.35
X20.0Y-26.35
X20.0Y-31.35
X20.0Y-36.35
X20.0Y-41.35
X20.0Y-46.35
X20.0Y-51.35
X20.0Y-56.35
X20.0Y-61.35
X20.0Y-66.35
X20.0Y-71.35
X20.0Y-76.35
X20.0Y-81.35
X20.0Y-86.35
X20.0Y-91.35
X20.0Y-96.35
X20.0Y-101.35
X20.0Y-106.35
X20.0Y-111.35
X20.0Y-116.35
X20.0Y-121.35
X20.0Y-126.35
X20.0Y-131.35
X20.0Y-136.35
X20.0Y-141.35
X20.0Y-146.35
X20.0Y-151.35
X20.0Y-156.35
X20.0Y-161.35
X20.32Y-181.356
X20.32Y-205.74
X20.828Y-83.312
X21.59Y-201.168
X21.844Y-166.116
X21.951Y-198.521
X22.306Y-194.634
X22.352Y-176.276
X22.606Y-191.516
X22.606Y-201.422
X22.86Y-193.802
X22.86Y-197.866
X23.005Y-183.485
X23.114Y-214.63
X24.13Y-204.47
X24.13Y-212.852
X24.13Y-216.408
X25.0Y-6.35
X25.0Y-11.35
X25.0Y-16.35
X25.0Y-21.35
X25.0Y-26.35
X25.0Y-31.35
X25.0Y-36.35
X25.0Y-41.35
X25.0Y-46.35
X25.0Y-51.35
X25.0Y-56.35
X25.0Y-61.35
X25.0Y-66.35
X25.0Y-71.35
X25.0Y-76.35
X25.0Y-81.35
X25.0Y-86.35
X25.0Y-91.35
X25.0Y-96.35
X25.0Y-101.35
X25.0Y-106.35
X25.0Y-111.35
X25.0Y-116.35
X25.0Y-121.35
X25.0Y-126.35
X25.0Y-131.35
X25.0Y-136.35
X25.0Y-141.35
X25.0Y-146.35
X25.0Y-151.35
X25.0Y-156.35
X25.0Y-161.35
X25.654Y-8.636
X25.654Y-13.716
X25.654Y-18.288
X25.654Y-23.368
X25.654Y-28.194
X25.654Y-33.528
X25.654Y-38.354
X25.654Y-43.18
X25.654Y-48.26
X25.654Y-53.34
X25.654Y-58.42
X25.654Y-63.5
X25.654Y-68.326
X25.654Y-73.406
X25.654Y-83.058
X25.654Y-88.392
X25.654Y-93.218
X25.654Y-98.298
X25.654Y-103.378
X25.654Y-108.458
X25.654Y-113.284
X25.654Y-118.364
X25.654Y-123.19
X25.654Y-128.27
X25.908Y-133.35
X25.908Y-138.43
X25.908Y-143.51
X25.908Y-148.336
X25.908Y-153.416
X25.908Y-158.242
X26.162Y-198.882
X26.416Y-213.614
X26.67Y-200.914
X26.924Y-166.116
X27.432Y-176.276
X28.04Y-179.477
X29.718Y-186.436
X30.0Y-6.35
X30.0Y-11.35
X30.0Y-16.35
X30.0Y-21.35
X30.0Y-26.35
X30.0Y-31.35
X30.0Y-36.35
X30.0Y-41.35
X30.0Y-46.35
X30.0Y-51.35
X30.0Y-56.35
X30.0Y-61.35
X30.0Y-66.35
X30.0Y-71.35
X30.0Y-76.35
X30.0Y-81.35
X30.0Y-86.35
X30.0Y-91.35
X30.0Y-96.35
X30.0Y-101.35
X30.0Y-106.35
X30.0Y-111.35
X30.0Y-116.35
X30.0Y-121.35
X30.0Y-126.35
X30.0Y-131.35
X30.0Y-136.35
X30.0Y-141.35
X30.0Y-146.35
X30.0Y-151.35
X30.0Y-156.35
X30.0Y-161.35
X30.226Y-8.636
X30.226Y-13.716
X30.226Y-18.288
X30.226Y-23.368
X30.226Y-28.194
X30.226Y-33.528
X30.226Y-38.354
X30.226Y-43.18
X30.226Y-48.26
X30.226Y-53.34
X30.226Y-58.42
X30.226Y-63.5
X30.226Y-68.326
X30.226Y-73.406
X30.226Y-83.058
X30.226Y-88.392
X30.226Y-93.218
X30.226Y-98.298
X30.226Y-103.378
X30.226Y-108.458
X30.226Y-113.284
X30.226Y-118.364
X30.226Y-123.19
X30.226Y-128.27
X30.48Y-133.35
X30.48Y-138.43
X30.48Y-143.51
X30.48Y-148.336
X30.48Y-153.416
X30.48Y-158.242
X32.004Y-166.116
X32.15Y-178.792
X32.258Y-176.276
X34.036Y-196.749
X34.036Y-199.644
X34.959Y-186.602
X35.0Y-6.35
X35.0Y-11.35
X35.0Y-16.35
X35.0Y-21.35
X35.0Y-26.35
X35.0Y-31.35
X35.0Y-36.35
X35.0Y-41.35
X35.0Y-46.35
X35.0Y-51.35
X35.0Y-56.35
X35.0Y-61.35
X35.0Y-66.35
X35.0Y-71.35
X35.0Y-76.35
X35.0Y-81.35
X35.0Y-86.35
X35.0Y-91.35
X35.0Y-96.35
X35.0Y-101.35
X35.0Y-106.35
X35.0Y-111.35
X35.0Y-116.35
X35.0Y-121.35
X35.0Y-126.35
X35.0Y-131.35
X35.0Y-136.35
X35.0Y-141.35
X35.0Y-146.35
X35.0Y-151.35
X35.0Y-156.35
X35.0Y-161.35
X35.434Y-8.673
X35.434Y-13.753
X35.434Y-18.325
X35.434Y-23.405
X35.434Y-28.231
X35.434Y-33.565
X35.434Y-38.391
X35.434Y-43.217
X35.434Y-48.297
X35.434Y-53.377
X35.434Y-58.457
X35.434Y-63.537
X35.434Y-68.363
X35.434Y-73.443
X35.434Y-83.095
X35.434Y-88.429
X35.434Y-93.255
X35.434Y-98.335
X35.434Y-103.415
X35.434Y-108.495
X35.434Y-113.321
X35.434Y-118.401
X35.434Y-123.227
X35.434Y-128.307
X35.688Y-133.387
X35.688Y-138.467
X35.688Y-143.547
X35.688Y-148.373
X35.688Y-153.453
X35.688Y-158.279
X36.068Y-212.09
X36.068Y-213.36
X37.084Y-166.116
X37.254Y-178.724
X37.338Y-176.276
X37.338Y-212.09
X37.338Y-213.36
X38.608Y-212.09
X38.608Y-213.412
X39.96Y-186.67
X40.0Y-6.35
X40.0Y-11.35
X40.0Y-16.35
X40.0Y-21.35
X40.0Y-26.35
X40.0Y-31.35
X40.0Y-36.35
X40.0Y-41.35
X40.0Y-46.35
X40.0Y-51.35
X40.0Y-56.35
X40.0Y-61.35
X40.0Y-66.35
X40.0Y-71.35
X40.0Y-76.35
X40.0Y-81.35
X40.0Y-86.35
X40.0Y-91.35
X40.0Y-96.35
X40.0Y-101.35
X40.0Y-106.35
X40.0Y-111.35
X40.0Y-116.35
X40.0Y-121.35
X40.0Y-126.35
X40.0Y-131.35
X40.0Y-136.35
X40.0Y-141.35
X40.0Y-146.35
X40.0Y-151.35
X40.0Y-156.35
X40.0Y-161.35
X40.386Y-8.636
X40.386Y-13.716
X40.386Y-18.288
X40.386Y-23.368
X40.386Y-28.194
X40.386Y-33.528
X40.386Y-38.354
X40.386Y-43.18
X40.386Y-48.26
X40.386Y-53.34
X40.386Y-58.42
X40.386Y-63.5
X40.386Y-68.326
X40.386Y-73.406
X40.386Y-83.058
X40.386Y-88.392
X40.386Y-93.218
X40.386Y-98.298
X40.386Y-103.378
X40.386Y-108.458
X40.386Y-113.284
X40.386Y-118.364
X40.386Y-123.19
X40.386Y-128.27
X40.64Y-133.35
X40.64Y-138.43
X40.64Y-143.51
X40.64Y-148.336
X40.64Y-153.416
X40.64Y-158.242
X41.638Y-189.479
X41.946Y-178.518
X42.164Y-166.116
X42.418Y-176.276
X43.526Y-206.087
X44.344Y-186.704
X45.0Y-6.35
X45.0Y-11.35
X45.0Y-16.35
X45.0Y-21.35
X45.0Y-26.35
X45.0Y-31.35
X45.0Y-36.35
X45.0Y-41.35
X45.0Y-46.35
X45.0Y-51.35
X45.0Y-56.35
X45.0Y-61.35
X45.0Y-66.35
X45.0Y-71.35
X45.0Y-76.35
X45.0Y-81.35
X45.0Y-86.35
X45.0Y-91.35
X45.0Y-96.35
X45.0Y-101.35
X45.0Y-106.35
X45.0Y-111.35
X45.0Y-116.35
X45.0Y-121.35
X45.0Y-126.35
X45.0Y-131.35
X45.0Y-136.35
X45.0Y-141.35
X45.0Y-146.35
X45.0Y-151.35
X45.0Y-156.35
X45.0Y-161.35
X45.466Y-189.992
X45.568Y-8.673
X45.568Y-13.753
X45.568Y-18.325
X45.568Y-23.405
X45.568Y-28.231
X45.568Y-33.565
X45.568Y-38.391
X45.568Y-43.217
X45.568Y-48.297
X45.568Y-53.377
X45.568Y-58.457
X45.568Y-63.537
X45.568Y-68.363
X45.568Y-73.443
X45.568Y-83.095
X45.568Y-88.429
X45.568Y-93.255
X45.568Y-98.335
X45.568Y-103.415
X45.568Y-108.495
X45.568Y-113.321
X45.568Y-118.401
X45.568Y-123.227
X45.568Y-128.307
X45.72Y-205.232
X45.822Y-133.387
X45.822Y-138.467
X45.822Y-143.547
X45.822Y-148.373
X45.822Y-153.453
X45.822Y-158.279
X46.508Y-198.102
X46.736Y-166.116
X47.244Y-176.276
X49.105Y-186.499
X49.839Y-203.03
X50.0Y-6.35
X50.0Y-11.35
X50.0Y-16.35
X50.0Y-21.35
X50.0Y-26.35
X50.0Y-31.35
X50.0Y-36.35
X50.0Y-41.35
X50.0Y-46.35
X50.0Y-51.35
X50.0Y-56.35
X50.0Y-61.35
X50.0Y-66.35
X50.0Y-71.35
X50.0Y-76.35
X50.0Y-81.35
X50.0Y-86.35
X50.0Y-91.35
X50.0Y-96.35
X50.0Y-101.35
X50.0Y-106.35
X50.0Y-111.35
X50.0Y-116.35
X50.0Y-121.35
X50.0Y-126.35
X50.0Y-131.35
X50.0Y-136.35
X50.0Y-141.35
X50.0Y-146.35
X50.0Y-151.35
X50.0Y-156.35
X50.0Y-161.35
X50.064Y-200.134
X50.546Y-8.636
X50.546Y-13.716
X50.546Y-18.288
X50.546Y-23.368
X50.546Y-28.194
X50.546Y-33.528
X50.546Y-38.354
X50.546Y-43.18
X50.546Y-48.26
X50.546Y-53.34
X50.546Y-58.42
X50.546Y-63.5
X50.546Y-68.326
X50.546Y-73.406
X50.546Y-83.058
X50.546Y-88.392
X50.546Y-93.218
X50.546Y-98.298
X50.546Y-103.378
X50.546Y-108.458
X50.546Y-113.284
X50.546Y-118.364
X50.546Y-123.19
X50.546Y-128.27
X50.8Y-133.35
X50.8Y-138.43
X50.8Y-143.51
X50.8Y-148.336
X50.8Y-153.416
X50.8Y-158.242
X50.8Y-205.687
X51.816Y-166.116
X52.324Y-176.276
X52.35Y-198.864
X52.528Y-209.513
X55.0Y-6.35
X55.0Y-11.35
X55.0Y-16.35
X55.0Y-21.35
X55.0Y-26.35
X55.0Y-31.35
X55.0Y-36.35
X55.0Y-41.35
X55.0Y-46.35
X55.0Y-51.35
X55.0Y-56.35
X55.0Y-61.35
X55.0Y-66.35
X55.0Y-71.35
X55.0Y-76.35
X55.0Y-81.35
X55.0Y-86.35
X55.0Y-91.35
X55.0Y-96.35
X55.0Y-101.35
X55.0Y-106.35
X55.0Y-111.35
X55.0Y-116.35
X55.0Y-121.35
X55.0Y-126.35
X55.0Y-131.35
X55.0Y-136.35
X55.0Y-141.35
X55.0Y-146.35
X55.0Y-151.35
X55.0Y-156.35
X55.0Y-161.35
X55.118Y-184.658
X55.144Y-198.356
X55.372Y-8.636
X55.372Y-13.716
X55.372Y-18.288
X55.372Y-23.368
X55.372Y-28.194
X55.372Y-33.528
X55.372Y-38.354
X55.372Y-43.18
X55.372Y-48.26
X55.372Y-53.34
X55.372Y-58.42
X55.372Y-63.5
X55.372Y-68.326
X55.372Y-73.406
X55.372Y-83.058
X55.372Y-88.392
X55.372Y-93.218
X55.372Y-98.298
X55.372Y-103.378
X55.372Y-108.458
X55.372Y-113.284
X55.372Y-118.364
X55.372Y-123.19
X55.372Y-128.27
X55.626Y-133.35
X55.626Y-138.43
X55.626Y-143.51
X55.626Y-148.336
X55.626Y-153.416
X55.626Y-158.242
X55.965Y-182.352
X56.134Y-183.968
X56.16Y-198.356
X56.16Y-202.674
X56.388Y-185.42
X56.896Y-166.116
X56.896Y-207.518
X57.15Y-182.952
X57.176Y-198.356
X57.404Y-176.276
X58.192Y-198.356
X59.803Y-204.757
X60.0Y-6.35
X60.0Y-11.35
X60.0Y-16.35
X60.0Y-21.35
X60.0Y-26.35
X60.0Y-31.35
X60.0Y-36.35
X60.0Y-41.35
X60.0Y-46.35
X60.0Y-51.35
X60.0Y-56.35
X60.0Y-61.35
X60.0Y-66.35
X60.0Y-71.35
X60.0Y-76.35
X60.0Y-81.35
X60.0Y-86.35
X60.0Y-91.35
X60.0Y-96.35
X60.0Y-101.35
X60.0Y-106.35
X60.0Y-111.35
X60.0Y-116.35
X60.0Y-121.35
X60.0Y-126.35
X60.0Y-131.35
X60.0Y-136.35
X60.0Y-141.35
X60.0Y-146.35
X60.0Y-151.35
X60.0Y-156.35
X60.0Y-161.35
X60.224Y-198.864
X60.452Y-8.636
X60.452Y-13.716
X60.452Y-18.288
X60.452Y-23.368
X60.452Y-28.194
X60.452Y-33.528
X60.452Y-38.354
X60.452Y-43.18
X60.452Y-48.26
X60.452Y-53.34
X60.452Y-58.42
X60.452Y-63.5
X60.452Y-68.326
X60.452Y-73.406
X60.452Y-83.058
X60.452Y-88.392
X60.452Y-93.218
X60.452Y-98.298
X60.452Y-103.378
X60.452Y-108.458
X60.452Y-113.284
X60.452Y-118.364
X60.452Y-123.19
X60.452Y-128.27
X60.706Y-133.35
X60.706Y-138.43
X60.706Y-143.51
X60.706Y-148.336
X60.706Y-153.416
X60.706Y-158.242
X61.976Y-166.116
X62.23Y-176.276
X64.974Y-211.679
X65.0Y-6.35
X65.0Y-11.35
X65.0Y-16.35
X65.0Y-21.35
X65.0Y-26.35
X65.0Y-31.35
X65.0Y-36.35
X65.0Y-41.35
X65.0Y-46.35
X65.0Y-51.35
X65.0Y-56.35
X65.0Y-61.35
X65.0Y-66.35
X65.0Y-71.35
X65.0Y-76.35
X65.0Y-81.35
X65.0Y-86.35
X65.0Y-91.35
X65.0Y-96.35
X65.0Y-101.35
X65.0Y-106.35
X65.0Y-111.35
X65.0Y-116.35
X65.0Y-121.35
X65.0Y-126.35
X65.0Y-131.35
X65.0Y-136.35
X65.0Y-141.35
X65.0Y-146.35
X65.0Y-151.35
X65.0Y-156.35
X65.0Y-161.35
X65.278Y-8.636
X65.278Y-13.716
X65.278Y-18.288
X65.278Y-23.368
X65.278Y-28.194
X65.278Y-33.528
X65.278Y-38.354
X65.278Y-43.18
X65.278Y-48.26
X65.278Y-53.34
X65.278Y-58.42
X65.278Y-63.5
X65.278Y-68.326
X65.278Y-73.406
X65.278Y-83.058
X65.278Y-88.392
X65.278Y-93.218
X65.278Y-98.298
X65.278Y-103.378
X65.278Y-108.458
X65.278Y-113.284
X65.278Y-118.364
X65.278Y-123.19
X65.278Y-128.27
X65.532Y-133.35
X65.532Y-138.43
X65.532Y-143.51
X65.532Y-148.336
X65.532Y-153.416
X65.532Y-158.242
X65.532Y-207.518
X66.802Y-195.326
X67.056Y-166.116
X67.31Y-176.276
X67.31Y-196.85
X67.457Y-197.973
X68.326Y-195.58
X70.0Y-6.35
X70.0Y-11.35
X70.0Y-16.35
X70.0Y-21.35
X70.0Y-26.35
X70.0Y-31.35
X70.0Y-36.35
X70.0Y-41.35
X70.0Y-46.35
X70.0Y-51.35
X70.0Y-56.35
X70.0Y-61.35
X70.0Y-66.35
X70.0Y-71.35
X70.0Y-76.35
X70.0Y-81.35
X70.0Y-86.35
X70.0Y-91.35
X70.0Y-96.35
X70.0Y-101.35
X70.0Y-106.35
X70.0Y-111.35
X70.0Y-116.35
X70.0Y-121.35
X70.0Y-126.35
X70.0Y-131.35
X70.0Y-136.35
X70.0Y-141.35
X70.0Y-146.35
X70.0Y-151.35
X70.0Y-156.35
X70.0Y-161.35
X70.358Y-8.89
X70.358Y-13.97
X70.358Y-18.542
X70.358Y-23.622
X70.358Y-28.448
X70.358Y-33.782
X70.358Y-38.608
X70.358Y-43.434
X70.358Y-48.514
X70.358Y-53.594
X70.358Y-58.674
X70.358Y-63.754
X70.358Y-68.58
X70.358Y-73.66
X70.358Y-83.312
X70.358Y-88.646
X70.358Y-93.472
X70.358Y-98.552
X70.358Y-103.632
X70.358Y-108.712
X70.358Y-113.538
X70.358Y-118.618
X70.358Y-123.444
X70.358Y-128.524
X70.358Y-207.79
X70.454Y-195.93
X70.612Y-133.604
X70.612Y-138.684
X70.612Y-143.764
X70.612Y-148.59
X70.612Y-153.67
X70.612Y-158.496
X70.612Y-184.404
X72.136Y-166.116
X72.39Y-176.276
X74.168Y-214.376
X74.314Y-199.282
X74.676Y-187.96
X75.0Y-6.35
X75.0Y-11.35
X75.0Y-16.35
X75.0Y-21.35
X75.0Y-26.35
X75.0Y-31.35
X75.0Y-36.35
X75.0Y-41.35
X75.0Y-46.35
X75.0Y-51.35
X75.0Y-56.35
X75.0Y-61.35
X75.0Y-66.35
X75.0Y-71.35
X75.0Y-76.35
X75.0Y-81.35
X75.0Y-86.35
X75.0Y-91.35
X75.0Y-96.35
X75.0Y-101.35
X75.0Y-106.35
X75.0Y-111.35
X75.0Y-116.35
X75.0Y-121.35
X75.0Y-126.35
X75.0Y-131.35
X75.0Y-136.35
X75.0Y-141.35
X75.0Y-146.35
X75.0Y-151.35
X75.0Y-156.35
X75.0Y-161.35
X75.184Y-8.636
X75.184Y-13.716
X75.184Y-18.288
X75.184Y-23.368
X75.184Y-28.194
X75.184Y-33.528
X75.184Y-38.354
X75.184Y-43.18
X75.184Y-48.26
X75.184Y-53.34
X75.184Y-58.42
X75.184Y-63.5
X75.184Y-68.326
X75.184Y-73.406
X75.184Y-83.058
X75.184Y-88.392
X75.184Y-93.218
X75.184Y-98.298
X75.184Y-103.378
X75.184Y-108.458
X75.184Y-113.284
X75.184Y-118.364
X75.184Y-123.19
X75.184Y-128.27
X75.438Y-133.35
X75.438Y-138.43
X75.438Y-143.51
X75.438Y-148.336
X75.438Y-153.416
X75.438Y-158.242
X77.216Y-166.116
X77.47Y-176.276
X80.0Y-6.35
X80.0Y-11.35
X80.0Y-16.35
X80.0Y-21.35
X80.0Y-26.35
X80.0Y-31.35
X80.0Y-36.35
X80.0Y-41.35
X80.0Y-46.35
X80.0Y-51.35
X80.0Y-56.35
X80.0Y-61.35
X80.0Y-66.35
X80.0Y-71.35
X80.0Y-76.35
X80.0Y-81.35
X80.0Y-86.35
X80.0Y-91.35
X80.0Y-96.35
X80.0Y-101.35
X80.0Y-106.35
X80.0Y-111.35
X80.0Y-116.35
X80.0Y-121.35
X80.0Y-126.35
X80.0Y-131.35
X80.0Y-136.35
X80.0Y-141.35
X80.0Y-146.35
X80.0Y-151.35
X80.0Y-156.35
X80.0Y-161.35
X80.402Y-207.815
X80.518Y-8.636
X80.518Y-13.716
X80.518Y-18.288
X80.518Y-23.368
X80.518Y-28.194
X80.518Y-33.528
X80.518Y-38.354
X80.518Y-43.18
X80.518Y-48.26
X80.518Y-53.34
X80.518Y-58.42
X80.518Y-63.5
X80.518Y-68.326
X80.518Y-73.406
X80.518Y-83.058
X80.518Y-88.392
X80.518Y-93.218
X80.518Y-98.298
X80.518Y-103.378
X80.518Y-108.458
X80.518Y-113.284
X80.518Y-118.364
X80.518Y-123.19
X80.518Y-128.27
X80.772Y-133.35
X80.772Y-138.43
X80.772Y-143.51
X80.772Y-148.336
X80.772Y-153.416
X80.772Y-158.242
X81.788Y-185.674
X82.042Y-187.452
X82.296Y-166.116
X82.296Y-176.276
X83.058Y-207.772
X83.258Y-184.453
X83.566Y-195.834
X85.0Y-6.35
X85.0Y-11.35
X85.0Y-16.35
X85.0Y-21.35
X85.0Y-26.35
X85.0Y-31.35
X85.0Y-36.35
X85.0Y-41.35
X85.0Y-46.35
X85.0Y-51.35
X85.0Y-56.35
X85.0Y-61.35
X85.0Y-66.35
X85.0Y-71.35
X85.0Y-76.35
X85.0Y-81.35
X85.0Y-86.35
X85.0Y-91.35
X85.0Y-96.35
X85.0Y-101.35
X85.0Y-106.35
X85.0Y-111.35
X85.0Y-116.35
X85.0Y-121.35
X85.0Y-126.35
X85.0Y-131.35
X85.0Y-136.35
X85.0Y-141.35
X85.0Y-146.35
X85.0Y-151.35
X85.0Y-156.35
X85.0Y-161.35
X85.419Y-8.616
X85.419Y-13.696
X85.419Y-18.268
X85.419Y-23.348
X85.419Y-28.174
X85.419Y-33.508
X85.419Y-38.334
X85.419Y-43.16
X85.419Y-48.24
X85.419Y-53.32
X85.419Y-58.4
X85.419Y-63.48
X85.419Y-68.306
X85.419Y-73.386
X85.419Y-83.038
X85.419Y-88.372
X85.419Y-93.198
X85.419Y-98.278
X85.419Y-103.358
X85.419Y-108.438
X85.419Y-113.264
X85.419Y-118.344
X85.419Y-123.17
X85.419Y-128.25
X85.673Y-133.33
X85.673Y-138.41
X85.673Y-143.49
X85.673Y-148.316
X85.673Y-153.396
X85.673Y-158.222
X85.852Y-202.184
X87.122Y-214.63
X87.218Y-187.706
X87.376Y-166.116
X87.376Y-176.276
X87.426Y-198.933
X90.0Y-6.35
X90.0Y-11.35
X90.0Y-16.35
X90.0Y-21.35
X90.0Y-26.35
X90.0Y-31.35
X90.0Y-36.35
X90.0Y-41.35
X90.0Y-46.35
X90.0Y-51.35
X90.0Y-56.35
X90.0Y-61.35
X90.0Y-66.35
X90.0Y-71.35
X90.0Y-76.35
X90.0Y-81.35
X90.0Y-86.35
X90.0Y-91.35
X90.0Y-96.35
X90.0Y-101.35
X90.0Y-106.35
X90.0Y-111.35
X90.0Y-116.35
X90.0Y-121.35
X90.0Y-126.35
X90.0Y-131.35
X90.0Y-136.35
X90.0Y-141.35
X90.0Y-146.35
X90.0Y-151.35
X90.0Y-156.35
X90.0Y-161.35
X90.373Y-8.588
X90.373Y-13.668
X90.373Y-18.24
X90.373Y-23.32
X90.373Y-28.146
X90.373Y-33.48
X90.373Y-38.306
X90.373Y-43.132
X90.373Y-48.212
X90.373Y-53.292
X90.373Y-58.372
X90.373Y-63.452
X90.373Y-68.278
X90.373Y-73.358
X90.373Y-83.01
X90.373Y-88.344
X90.373Y-93.17
X90.373Y-98.25
X90.373Y-103.33
X90.373Y-108.41
X90.373Y-113.236
X90.373Y-118.316
X90.373Y-123.142
X90.373Y-128.222
X90.627Y-133.302
X90.627Y-138.382
X90.627Y-143.462
X90.627Y-148.288
X90.627Y-153.368
X90.627Y-158.194
X92.456Y-166.116
X92.456Y-176.276
X93.367Y-207.73
X94.232Y-214.107
X95.0Y-6.35
X95.0Y-11.35
X95.0Y-16.35
X95.0Y-21.35
X95.0Y-26.35
X95.0Y-31.35
X95.0Y-36.35
X95.0Y-41.35
X95.0Y-46.35
X95.0Y-51.35
X95.0Y-56.35
X95.0Y-61.35
X95.0Y-66.35
X95.0Y-71.35
X95.0Y-76.35
X95.0Y-81.35
X95.0Y-86.35
X95.0Y-91.35
X95.0Y-96.35
X95.0Y-101.35
X95.0Y-106.35
X95.0Y-111.35
X95.0Y-116.35
X95.0Y-121.35
X95.0Y-126.35
X95.0Y-131.35
X95.0Y-136.35
X95.0Y-141.35
X95.0Y-146.35
X95.0Y-151.35
X95.0Y-156.35
X95.0Y-161.35
X95.25Y-185.674
X95.504Y-187.452
X95.638Y-8.871
X95.638Y-13.951
X95.638Y-18.523
X95.638Y-23.603
X95.638Y-28.429
X95.638Y-33.763
X95.638Y-38.589
X95.638Y-43.415
X95.638Y-48.495
X95.638Y-53.575
X95.638Y-58.655
X95.638Y-63.735
X95.638Y-68.561
X95.638Y-73.641
X95.638Y-83.293
X95.638Y-88.627
X95.638Y-93.453
X95.638Y-98.533
X95.638Y-103.613
X95.638Y-108.693
X95.638Y-113.519
X95.638Y-118.599
X95.638Y-123.425
X95.638Y-128.505
X95.892Y-133.585
X95.892Y-138.665
X95.892Y-143.745
X95.892Y-148.571
X95.892Y-153.651
X95.892Y-158.477
X96.958Y-195.803
X97.124Y-184.754
X97.282Y-176.276
X97.282Y-207.772
X97.536Y-166.116
X99.568Y-202.184
X100.0Y-6.35
X100.0Y-11.35
X100.0Y-16.35
X100.0Y-21.35
X100.0Y-26.35
X100.0Y-31.35
X100.0Y-36.35
X100.0Y-41.35
X100.0Y-46.35
X100.0Y-51.35
X100.0Y-56.35
X100.0Y-61.35
X100.0Y-66.35
X100.0Y-71.35
X100.0Y-76.35
X100.0Y-81.35
X100.0Y-86.35
X100.0Y-91.35
X100.0Y-96.35
X100.0Y-101.35
X100.0Y-106.35
X100.0Y-111.35
X100.0Y-116.35
X100.0Y-121.35
X100.0Y-126.35
X100.0Y-131.35
X100.0Y-136.35
X100.0Y-141.35
X100.0Y-146.35
X100.0Y-151.35
X100.0Y-156.35
X100.0Y-161.35
X100.33Y-8.382
X100.33Y-13.462
X100.33Y-18.034
X100.33Y-23.114
X100.33Y-27.94
X100.33Y-33.274
X100.33Y-38.1
X100.33Y-42.926
X100.33Y-48.006
X100.33Y-53.086
X100.33Y-58.166
X100.33Y-63.246
X100.33Y-68.072
X100.33Y-73.152
X100.33Y-82.804
X100.33Y-88.138
X100.33Y-92.964
X100.33Y-98.044
X100.33Y-103.124
X100.33Y-108.204
X100.33Y-113.03
X100.33Y-118.11
X100.33Y-122.936
X100.33Y-128.016
X100.584Y-133.096
X100.584Y-138.176
X100.584Y-143.256
X100.584Y-148.082
X100.584Y-153.162
X100.584Y-157.988
X100.73Y-187.852
X101.073Y-198.901
X101.092Y-214.376
X102.362Y-176.276
X102.616Y-166.116
X105.0Y-6.35
X105.0Y-11.35
X105.0Y-16.35
X105.0Y-21.35
X105.0Y-26.35
X105.0Y-31.35
X105.0Y-36.35
X105.0Y-41.35
X105.0Y-46.35
X105.0Y-51.35
X105.0Y-56.35
X105.0Y-61.35
X105.0Y-66.35
X105.0Y-71.35
X105.0Y-76.35
X105.0Y-81.35
X105.0Y-86.35
X105.0Y-91.35
X105.0Y-96.35
X105.0Y-101.35
X105.0Y-106.35
X105.0Y-111.35
X105.0Y-116.35
X105.0Y-121.35
X105.0Y-126.35
X105.0Y-131.35
X105.0Y-136.35
X105.0Y-141.35
X105.0Y-146.35
X105.0Y-151.35
X105.0Y-156.35
X105.0Y-161.35
X105.664Y-8.382
X105.664Y-13.462
X105.664Y-18.034
X105.664Y-23.114
X105.664Y-27.94
X105.664Y-33.274
X105.664Y-38.1
X105.664Y-42.926
X105.664Y-48.006
X105.664Y-53.086
X105.664Y-58.166
X105.664Y-63.246
X105.664Y-68.072
X105.664Y-73.152
X105.664Y-82.804
X105.664Y-88.138
X105.664Y-92.964
X105.664Y-98.044
X105.664Y-103.124
X105.664Y-108.204
X105.664Y-113.03
X105.664Y-118.11
X105.664Y-122.936
X105.664Y-128.016
X105.918Y-133.096
X105.918Y-138.176
X105.918Y-143.256
X105.918Y-148.082
X105.918Y-153.162
X105.918Y-157.988
X107.073Y-207.571
X107.188Y-166.116
X107.442Y-176.276
X107.95Y-214.122
X108.712Y-185.674
X108.966Y-187.452
X110.0Y-6.35
X110.0Y-11.35
X110.0Y-16.35
X110.0Y-21.35
X110.0Y-26.35
X110.0Y-31.35
X110.0Y-36.35
X110.0Y-41.35
X110.0Y-46.35
X110.0Y-51.35
X110.0Y-56.35
X110.0Y-61.35
X110.0Y-66.35
X110.0Y-71.35
X110.0Y-76.35
X110.0Y-81.35
X110.0Y-86.35
X110.0Y-91.35
X110.0Y-96.35
X110.0Y-101.35
X110.0Y-106.35
X110.0Y-111.35
X110.0Y-116.35
X110.0Y-121.35
X110.0Y-126.35
X110.0Y-131.35
X110.0Y-136.35
X110.0Y-141.35
X110.0Y-146.35
X110.0Y-151.35
X110.0Y-156.35
X110.0Y-161.35
X110.236Y-8.636
X110.236Y-13.716
X110.236Y-18.288
X110.236Y-23.368
X110.236Y-28.194
X110.236Y-33.528
X110.236Y-38.354
X110.236Y-43.18
X110.236Y-48.26
X110.236Y-53.34
X110.236Y-58.42
X110.236Y-63.5
X110.236Y-68.326
X110.236Y-73.406
X110.236Y-83.058
X110.236Y-88.392
X110.236Y-93.218
X110.236Y-98.298
X110.236Y-103.378
X110.236Y-108.458
X110.236Y-113.284
X110.236Y-118.364
X110.236Y-123.19
X110.236Y-128.27
X110.49Y-133.35
X110.49Y-138.43
X110.49Y-143.51
X110.49Y-148.336
X110.49Y-153.416
X110.49Y-158.242
X110.593Y-184.962
X110.593Y-195.853
X111.157Y-207.849
X112.268Y-166.116
X112.268Y-176.276
X113.538Y-201.93
X114.2Y-188.06
X114.554Y-214.376
X114.808Y-198.851
X115.0Y-6.35
X115.0Y-11.35
X115.0Y-16.35
X115.0Y-21.35
X115.0Y-26.35
X115.0Y-31.35
X115.0Y-36.35
X115.0Y-41.35
X115.0Y-46.35
X115.0Y-51.35
X115.0Y-56.35
X115.0Y-61.35
X115.0Y-66.35
X115.0Y-71.35
X115.0Y-76.35
X115.0Y-81.35
X115.0Y-86.35
X115.0Y-91.35
X115.0Y-96.35
X115.0Y-101.35
X115.0Y-106.35
X115.0Y-111.35
X115.0Y-116.35
X115.0Y-121.35
X115.0Y-126.35
X115.0Y-131.35
X115.0Y-136.35
X115.0Y-141.35
X115.0Y-146.35
X115.0Y-151.35
X115.0Y-156.35
X115.0Y-161.35
X115.316Y-8.636
X115.316Y-13.716
X115.316Y-18.288
X115.316Y-23.368
X115.316Y-28.194
X115.316Y-33.528
X115.316Y-38.354
X115.316Y-43.18
X115.316Y-48.26
X115.316Y-53.34
X115.316Y-58.42
X115.316Y-63.5
X115.316Y-68.326
X115.316Y-73.406
X115.316Y-83.058
X115.316Y-88.392
X115.316Y-93.218
X115.316Y-98.298
X115.316Y-103.378
X115.316Y-108.458
X115.316Y-113.284
X115.316Y-118.364
X115.316Y-123.19
X115.316Y-128.27
X115.57Y-133.35
X115.57Y-138.43
X115.57Y-143.51
X115.57Y-148.336
X115.57Y-153.416
X115.57Y-158.242
X117.348Y-166.116
X117.348Y-176.276
X120.0Y-6.35
X120.0Y-11.35
X120.0Y-16.35
X120.0Y-21.35
X120.0Y-26.35
X120.0Y-31.35
X120.0Y-36.35
X120.0Y-41.35
X120.0Y-46.35
X120.0Y-51.35
X120.0Y-56.35
X120.0Y-61.35
X120.0Y-66.35
X120.0Y-71.35
X120.0Y-76.35
X120.0Y-81.35
X120.0Y-86.35
X120.0Y-91.35
X120.0Y-96.35
X120.0Y-101.35
X120.0Y-106.35
X120.0Y-111.35
X120.0Y-116.35
X120.0Y-121.35
X120.0Y-126.35
X120.0Y-131.35
X120.0Y-136.35
X120.0Y-141.35
X120.0Y-146.35
X120.0Y-151.35
X120.0Y-156.35
X120.0Y-161.35
X120.396Y-8.382
X120.396Y-13.462
X120.396Y-18.034
X120.396Y-23.114
X120.396Y-27.94
X120.396Y-33.274
X120.396Y-38.1
X120.396Y-42.926
X120.396Y-48.006
X120.396Y-53.086
X120.396Y-58.166
X120.396Y-63.246
X120.396Y-68.072
X120.396Y-73.152
X120.396Y-82.804
X120.396Y-88.138
X120.396Y-92.964
X120.396Y-98.044
X120.396Y-103.124
X120.396Y-108.204
X120.396Y-113.03
X120.396Y-118.11
X120.396Y-122.936
X120.396Y-128.016
X120.65Y-133.096
X120.65Y-138.176
X120.65Y-143.256
X120.65Y-148.082
X120.65Y-153.162
X120.65Y-157.988
X120.8Y-184.15
X121.92Y-198.882
X122.174Y-185.831
X122.174Y-187.452
X122.428Y-166.116
X122.428Y-176.276
X123.698Y-195.834
X124.206Y-209.042
X124.447Y-212.475
X125.0Y-6.35
X125.0Y-11.35
X125.0Y-16.35
X125.0Y-21.35
X125.0Y-26.35
X125.0Y-31.35
X125.0Y-36.35
X125.0Y-41.35
X125.0Y-46.35
X125.0Y-51.35
X125.0Y-56.35
X125.0Y-61.35
X125.0Y-66.35
X125.0Y-71.35
X125.0Y-76.35
X125.0Y-81.35
X125.0Y-86.35
X125.0Y-91.35
X125.0Y-96.35
X125.0Y-101.35
X125.0Y-106.35
X125.0Y-111.35
X125.0Y-116.35
X125.0Y-121.35
X125.0Y-126.35
X125.0Y-131.35
X125.0Y-136.35
X125.0Y-141.35
X125.0Y-146.35
X125.0Y-151.35
X125.0Y-156.35
X125.0Y-161.35
X125.298Y-8.701
X125.298Y-13.781
X125.298Y-18.353
X125.298Y-23.433
X125.298Y-28.259
X125.298Y-33.593
X125.298Y-38.419
X125.298Y-43.245
X125.298Y-48.325
X125.298Y-53.405
X125.298Y-58.485
X125.298Y-63.565
X125.298Y-68.391
X125.298Y-73.471
X125.298Y-83.123
X125.298Y-88.457
X125.298Y-93.283
X125.298Y-98.363
X125.298Y-103.443
X125.298Y-108.523
X125.298Y-113.349
X125.298Y-118.429
X125.298Y-123.255
X125.298Y-128.335
X125.552Y-133.415
X125.552Y-138.495
X125.552Y-143.575
X125.552Y-148.401
X125.552Y-153.481
X125.552Y-158.307
X126.238Y-186.69
X127.508Y-166.116
X127.508Y-176.276
X127.912Y-198.832
X128.947Y-211.683
X129.089Y-208.625
X130.0Y-6.35
X130.0Y-11.35
X130.0Y-16.35
X130.0Y-21.35
X130.0Y-26.35
X130.0Y-31.35
X130.0Y-36.35
X130.0Y-41.35
X130.0Y-46.35
X130.0Y-51.35
X130.0Y-56.35
X130.0Y-61.35
X130.0Y-66.35
X130.0Y-71.35
X130.0Y-76.35
X130.0Y-81.35
X130.0Y-86.35
X130.0Y-91.35
X130.0Y-96.35
X130.0Y-101.35
X130.0Y-106.35
X130.0Y-111.35
X130.0Y-116.35
X130.0Y-121.35
X130.0Y-126.35
X130.0Y-131.35
X130.0Y-136.35
X130.0Y-141.35
X130.0Y-146.35
X130.0Y-151.35
X130.0Y-156.35
X130.0Y-161.35
X130.421Y-8.786
X130.421Y-13.866
X130.421Y-18.438
X130.421Y-23.518
X130.421Y-28.344
X130.421Y-33.678
X130.421Y-38.504
X130.421Y-43.33
X130.421Y-48.41
X130.421Y-53.49
X130.421Y-58.57
X130.421Y-63.65
X130.421Y-68.476
X130.421Y-73.556
X130.421Y-83.208
X130.421Y-88.542
X130.421Y-93.368
X130.421Y-98.448
X130.421Y-103.528
X130.421Y-108.608
X130.421Y-113.434
X130.421Y-118.514
X130.421Y-123.34
X130.421Y-128.42
X130.675Y-133.5
X130.675Y-138.58
X130.675Y-143.66
X130.675Y-148.486
X130.675Y-153.566
X130.675Y-158.392
X132.334Y-176.276
X132.588Y-166.116
X133.858Y-214.376
X135.0Y-6.35
X135.0Y-11.35
X135.0Y-16.35
X135.0Y-21.35
X135.0Y-26.35
X135.0Y-31.35
X135.0Y-36.35
X135.0Y-41.35
X135.0Y-46.35
X135.0Y-51.35
X135.0Y-56.35
X135.0Y-61.35
X135.0Y-66.35
X135.0Y-71.35
X135.0Y-76.35
X135.0Y-81.35
X135.0Y-86.35
X135.0Y-91.35
X135.0Y-96.35
X135.0Y-101.35
X135.0Y-106.35
X135.0Y-111.35
X135.0Y-116.35
X135.0Y-121.35
X135.0Y-126.35
X135.0Y-131.35
X135.0Y-136.35
X135.0Y-141.35
X135.0Y-146.35
X135.0Y-151.35
X135.0Y-156.35
X135.0Y-161.35
X135.636Y-8.636
X135.636Y-13.716
X135.636Y-18.288
X135.636Y-23.368
X135.636Y-28.194
X135.636Y-33.528
X135.636Y-38.354
X135.636Y-43.18
X135.636Y-48.26
X135.636Y-53.34
X135.636Y-58.42
X135.636Y-63.5
X135.636Y-68.326
X135.636Y-73.406
X135.636Y-83.058
X135.636Y-88.392
X135.636Y-93.218
X135.636Y-98.298
X135.636Y-103.378
X135.636Y-108.458
X135.636Y-113.284
X135.636Y-118.364
X135.636Y-123.19
X135.636Y-128.27
X135.89Y-133.35
X135.89Y-138.43
X135.89Y-143.51
X135.89Y-148.336
X135.89Y-153.416
X135.89Y-158.242
X136.652Y-185.42
X136.906Y-182.118
X137.16Y-166.116
X137.16Y-195.834
X137.414Y-176.276
X137.668Y-189.992
X138.176Y-192.024
X138.43Y-190.754
X138.43Y-208.534
X139.192Y-191.516
X139.446Y-192.532
X140.0Y-6.35
X140.0Y-11.35
X140.0Y-16.35
X140.0Y-21.35
X140.0Y-26.35
X140.0Y-31.35
X140.0Y-36.35
X140.0Y-41.35
X140.0Y-46.35
X140.0Y-51.35
X140.0Y-56.35
X140.0Y-61.35
X140.0Y-66.35
X140.0Y-71.35
X140.0Y-76.35
X140.0Y-81.35
X140.0Y-86.35
X140.0Y-91.35
X140.0Y-96.35
X140.0Y-101.35
X140.0Y-106.35
X140.0Y-111.35
X140.0Y-116.35
X140.0Y-121.35
X140.0Y-126.35
X140.0Y-131.35
X140.0Y-136.35
X140.0Y-141.35
X140.0Y-146.35
X140.0Y-151.35
X140.0Y-156.35
X140.0Y-161.35
X140.208Y-191.732
X140.462Y-8.636
X140.462Y-13.716
X140.462Y-18.288
X140.462Y-23.368
X140.462Y-28.194
X140.462Y-33.528
X140.462Y-38.354
X140.462Y-43.18
X140.462Y-48.26
X140.462Y-53.34
X140.462Y-58.42
X140.462Y-63.5
X140.462Y-68.326
X140.462Y-73.406
X140.462Y-83.058
X140.462Y-88.392
X140.462Y-93.218
X140.462Y-98.298
X140.462Y-103.378
X140.462Y-108.458
X140.462Y-113.284
X140.462Y-118.364
X140.462Y-123.19
X140.462Y-128.27
X140.462Y-192.786
X140.716Y-133.35
X140.716Y-138.43
X140.716Y-143.51
X140.716Y-148.336
X140.716Y-153.416
X140.716Y-158.242
X141.478Y-191.77
X141.732Y-193.04
X142.24Y-166.116
X142.24Y-176.276
X142.279Y-181.864
X142.311Y-185.351
X142.512Y-191.194
X142.748Y-180.34
X142.907Y-209.55
X143.02Y-192.209
X143.528Y-191.194
X144.036Y-192.209
X144.343Y-185.351
X144.526Y-187.198
X144.544Y-191.194
X144.78Y-196.85
X145.0Y-6.35
X145.0Y-11.35
X145.0Y-16.35
X145.0Y-21.35
X145.0Y-26.35
X145.0Y-31.35
X145.0Y-36.35
X145.0Y-41.35
X145.0Y-46.35
X145.0Y-51.35
X145.0Y-56.35
X145.0Y-61.35
X145.0Y-66.35
X145.0Y-71.35
X145.0Y-76.35
X145.0Y-81.35
X145.0Y-86.35
X145.0Y-91.35
X145.0Y-96.35
X145.0Y-101.35
X145.0Y-106.35
X145.0Y-111.35
X145.0Y-116.35
X145.0Y-121.35
X145.0Y-126.35
X145.0Y-131.35
X145.0Y-136.35
X145.0Y-141.35
X145.0Y-146.35
X145.0Y-151.35
X145.0Y-156.35
X145.0Y-161.35
X145.542Y-8.382
X145.542Y-13.462
X145.542Y-18.034
X145.542Y-23.114
X145.542Y-27.94
X145.542Y-33.274
X145.542Y-38.1
X145.542Y-42.926
X145.542Y-48.006
X145.542Y-53.086
X145.542Y-58.166
X145.542Y-63.246
X145.542Y-68.072
X145.542Y-73.152
X145.542Y-82.804
X145.542Y-88.138
X145.542Y-92.964
X145.542Y-98.044
X145.542Y-103.124
X145.542Y-108.204
X145.542Y-113.03
X145.542Y-118.11
X145.542Y-122.936
X145.542Y-128.016
X145.796Y-133.096
X145.796Y-138.176
X145.796Y-143.256
X145.796Y-148.082
X145.796Y-153.162
X145.796Y-157.988
X147.32Y-166.116
X147.32Y-176.276
X147.32Y-191.194
X147.574Y-183.103
X148.608Y-192.209
X149.37Y-187.891
X149.606Y-191.194
X150.0Y-6.35
X150.0Y-11.35
X150.0Y-16.35
X150.0Y-21.35
X150.0Y-26.35
X150.0Y-31.35
X150.0Y-36.35
X150.0Y-41.35
X150.0Y-46.35
X150.0Y-51.35
X150.0Y-56.35
X150.0Y-61.35
X150.0Y-66.35
X150.0Y-71.35
X150.0Y-76.35
X150.0Y-81.35
X150.0Y-86.35
X150.0Y-91.35
X150.0Y-96.35
X150.0Y-101.35
X150.0Y-106.35
X150.0Y-111.35
X150.0Y-116.35
X150.0Y-121.35
X150.0Y-126.35
X150.0Y-131.35
X150.0Y-136.35
X150.0Y-141.35
X150.0Y-146.35
X150.0Y-151.35
X150.0Y-156.35
X150.0Y-161.35
X150.132Y-187.129
X150.368Y-8.382
X150.368Y-13.462
X150.368Y-18.034
X150.368Y-23.114
X150.368Y-27.94
X150.368Y-33.274
X150.368Y-38.1
X150.368Y-42.926
X150.368Y-48.006
X150.368Y-53.086
X150.368Y-58.166
X150.368Y-63.246
X150.368Y-68.072
X150.368Y-73.152
X150.368Y-82.804
X150.368Y-88.138
X150.368Y-92.964
X150.368Y-98.044
X150.368Y-103.124
X150.368Y-108.204
X150.368Y-113.03
X150.368Y-118.11
X150.368Y-122.936
X150.368Y-128.016
X150.622Y-133.096
X150.622Y-138.176
X150.622Y-143.256
X150.622Y-148.082
X150.622Y-153.162
X150.622Y-157.988
X150.64Y-192.209
X150.894Y-187.891
X150.947Y-185.351
X150.967Y-201.259
X151.148Y-191.194
X151.656Y-187.129
X152.164Y-191.194
X152.4Y-166.116
X152.4Y-176.276
X152.979Y-185.351
X153.162Y-192.278
X153.18Y-191.194
X153.924Y-214.122
X155.0Y-6.35
X155.0Y-11.35
X155.0Y-16.35
X155.0Y-21.35
X155.0Y-26.35
X155.0Y-31.35
X155.0Y-36.35
X155.0Y-41.35
X155.0Y-46.35
X155.0Y-51.35
X155.0Y-56.35
X155.0Y-61.35
X155.0Y-66.35
X155.0Y-71.35
X155.0Y-76.35
X155.0Y-81.35
X155.0Y-86.35
X155.0Y-91.35
X155.0Y-96.35
X155.0Y-101.35
X155.0Y-106.35
X155.0Y-111.35
X155.0Y-116.35
X155.0Y-121.35
X155.0Y-126.35
X155.0Y-131.35
X155.0Y-136.35
X155.0Y-141.35
X155.0Y-146.35
X155.0Y-151.35
X155.0Y-156.35
X155.0Y-161.35
X155.547Y-8.588
X155.547Y-13.668
X155.547Y-18.24
X155.547Y-23.32
X155.547Y-28.146
X155.547Y-33.48
X155.547Y-38.306
X155.547Y-43.132
X155.547Y-48.212
X155.547Y-53.292
X155.547Y-58.372
X155.547Y-63.452
X155.547Y-68.278
X155.547Y-73.358
X155.547Y-83.01
X155.547Y-88.344
X155.547Y-93.17
X155.547Y-98.25
X155.547Y-103.33
X155.547Y-108.41
X155.547Y-113.236
X155.547Y-118.316
X155.547Y-123.142
X155.547Y-128.222
X155.801Y-133.302
X155.801Y-138.382
X155.801Y-143.462
X155.801Y-148.288
X155.801Y-153.368
X155.801Y-158.194
X156.464Y-182.88
X156.718Y-191.262
X157.226Y-176.276
X157.48Y-166.116
X157.805Y-185.351
X157.806Y-205.242
X158.006Y-187.891
X158.242Y-191.262
X158.768Y-187.129
X159.53Y-187.891
X159.583Y-185.351
X159.784Y-191.194
X160.0Y-6.35
X160.0Y-11.35
X160.0Y-16.35
X160.0Y-21.35
X160.0Y-26.35
X160.0Y-31.35
X160.0Y-36.35
X160.0Y-41.35
X160.0Y-46.35
X160.0Y-51.35
X160.0Y-56.35
X160.0Y-61.35
X160.0Y-66.35
X160.0Y-71.35
X160.0Y-76.35
X160.0Y-81.35
X160.0Y-86.35
X160.0Y-91.35
X160.0Y-96.35
X160.0Y-101.35
X160.0Y-106.35
X160.0Y-111.35
X160.0Y-116.35
X160.0Y-121.35
X160.0Y-126.35
X160.0Y-131.35
X160.0Y-136.35
X160.0Y-141.35
X160.0Y-146.35
X160.0Y-151.35
X160.0Y-156.35
X160.0Y-161.35
X160.02Y-192.209
X160.292Y-187.129
X160.528Y-8.636
X160.528Y-13.716
X160.528Y-18.288
X160.528Y-23.368
X160.528Y-28.194
X160.528Y-33.528
X160.528Y-38.354
X160.528Y-43.18
X160.528Y-48.26
X160.528Y-53.34
X160.528Y-58.42
X160.528Y-63.5
X160.528Y-68.326
X160.528Y-73.406
X160.528Y-83.058
X160.528Y-88.392
X160.528Y-93.218
X160.528Y-98.298
X160.528Y-103.378
X160.528Y-108.458
X160.528Y-113.284
X160.528Y-118.364
X160.528Y-123.19
X160.528Y-128.27
X160.782Y-133.35
X160.782Y-138.43
X160.782Y-143.51
X160.782Y-148.336
X160.782Y-153.416
X160.782Y-158.242
X160.8Y-191.194
X161.036Y-214.122
X161.544Y-192.209
X161.615Y-185.351
X161.816Y-191.194
X162.306Y-176.276
X162.56Y-166.116
X162.814Y-191.008
X164.866Y-205.187
X165.0Y-6.35
X165.0Y-11.35
X165.0Y-16.35
X165.0Y-21.35
X165.0Y-26.35
X165.0Y-31.35
X165.0Y-36.35
X165.0Y-41.35
X165.0Y-46.35
X165.0Y-51.35
X165.0Y-56.35
X165.0Y-61.35
X165.0Y-66.35
X165.0Y-71.35
X165.0Y-76.35
X165.0Y-81.35
X165.0Y-86.35
X165.0Y-91.35
X165.0Y-96.35
X165.0Y-101.35
X165.0Y-106.35
X165.0Y-111.35
X165.0Y-116.35
X165.0Y-121.35
X165.0Y-126.35
X165.0Y-131.35
X165.0Y-136.35
X165.0Y-141.35
X165.0Y-146.35
X165.0Y-151.35
X165.0Y-156.35
X165.0Y-161.35
X165.1Y-180.086
X165.1Y-183.103
X165.372Y-192.209
X165.608Y-8.636
X165.608Y-13.716
X165.608Y-18.288
X165.608Y-23.368
X165.608Y-28.194
X165.608Y-33.528
X165.608Y-38.354
X165.608Y-43.18
X165.608Y-48.26
X165.608Y-53.34
X165.608Y-58.42
X165.608Y-63.5
X165.608Y-68.326
X165.608Y-73.406
X165.608Y-83.058
X165.608Y-88.392
X165.608Y-93.218
X165.608Y-98.298
X165.608Y-103.378
X165.608Y-108.458
X165.608Y-113.284
X165.608Y-118.364
X165.608Y-123.19
X165.608Y-128.27
X165.626Y-191.194
X165.862Y-133.35
X165.862Y-138.43
X165.862Y-143.51
X165.862Y-148.336
X165.862Y-153.416
X165.862Y-158.242
X166.642Y-187.891
X166.695Y-185.351
X167.132Y-166.116
X167.386Y-176.276
X167.395Y-192.218
X167.404Y-187.129
X167.404Y-191.194
X168.148Y-214.122
X168.166Y-187.891
X168.219Y-185.351
X168.42Y-191.194
X168.928Y-187.129
X168.928Y-192.209
X169.436Y-191.194
X169.944Y-192.209
X170.0Y-6.35
X170.0Y-11.35
X170.0Y-16.35
X170.0Y-21.35
X170.0Y-26.35
X170.0Y-31.35
X170.0Y-36.35
X170.0Y-41.35
X170.0Y-46.35
X170.0Y-51.35
X170.0Y-56.35
X170.0Y-61.35
X170.0Y-66.35
X170.0Y-71.35
X170.0Y-76.35
X170.0Y-81.35
X170.0Y-86.35
X170.0Y-91.35
X170.0Y-96.35
X170.0Y-101.35
X170.0Y-106.35
X170.0Y-111.35
X170.0Y-116.35
X170.0Y-121.35
X170.0Y-126.35
X170.0Y-131.35
X170.0Y-136.35
X170.0Y-141.35
X170.0Y-146.35
X170.0Y-151.35
X170.0Y-156.35
X170.0Y-161.35
X170.238Y-8.531
X170.238Y-13.611
X170.238Y-18.183
X170.238Y-23.263
X170.238Y-28.089
X170.238Y-33.423
X170.238Y-38.249
X170.238Y-43.075
X170.238Y-48.155
X170.238Y-53.235
X170.238Y-58.315
X170.238Y-63.395
X170.238Y-68.221
X170.238Y-73.301
X170.238Y-82.953
X170.238Y-88.287
X170.238Y-93.113
X170.238Y-98.193
X170.238Y-103.273
X170.238Y-108.353
X170.238Y-113.179
X170.238Y-118.259
X170.238Y-123.085
X170.238Y-128.165
X170.251Y-185.351
X170.492Y-133.245
X170.492Y-138.325
X170.492Y-143.405
X170.492Y-148.231
X170.492Y-153.311
X170.492Y-158.137
X170.493Y-205.187
X172.212Y-166.116
X172.212Y-176.276
X175.0Y-6.35
X175.0Y-11.35
X175.0Y-16.35
X175.0Y-21.35
X175.0Y-26.35
X175.0Y-31.35
X175.0Y-36.35
X175.0Y-41.35
X175.0Y-46.35
X175.0Y-51.35
X175.0Y-56.35
X175.0Y-61.35
X175.0Y-66.35
X175.0Y-71.35
X175.0Y-76.35
X175.0Y-81.35
X175.0Y-86.35
X175.0Y-91.35
X175.0Y-96.35
X175.0Y-101.35
X175.0Y-106.35
X175.0Y-111.35
X175.0Y-116.35
X175.0Y-121.35
X175.0Y-126.35
X175.0Y-131.35
X175.0Y-136.35
X175.0Y-141.35
X175.0Y-146.35
X175.0Y-151.35
X175.0Y-156.35
X175.0Y-161.35
X175.514Y-214.122
X175.956Y-8.701
X175.956Y-13.781
X175.956Y-18.353
X175.956Y-23.433
X175.956Y-28.259
X175.956Y-33.593
X175.956Y-38.419
X175.956Y-43.245
X175.956Y-48.325
X175.956Y-53.405
X175.956Y-58.485
X175.956Y-63.565
X175.956Y-68.391
X175.956Y-73.471
X175.956Y-83.123
X175.956Y-88.457
X175.956Y-93.283
X175.956Y-98.363
X175.956Y-103.443
X175.956Y-108.523
X175.956Y-113.349
X175.956Y-118.429
X175.956Y-123.255
X175.956Y-128.335
X176.21Y-133.415
X176.21Y-138.495
X176.21Y-143.575
X176.21Y-148.401
X176.21Y-153.481
X176.21Y-158.307
X177.292Y-166.116
X177.499Y-204.967
X181.356Y-48.26
X182.118Y-27.178
X182.118Y-166.116
X183.079Y-113.797
X183.214Y-69.163
X183.388Y-94.742
X183.388Y-201.93
X183.642Y-214.122
X184.404Y-128.524
X184.976Y-146.303
X185.898Y-179.369
X185.928Y-169.926
X185.928Y-195.072
X186.182Y-187.198
X187.198Y-23.622
X187.452Y-156.464
X187.452Y-157.734
X187.452Y-159.004
X188.468Y-15.748
X188.722Y-31.75
X188.976Y-156.464
X188.976Y-157.734
X188.976Y-159.004
X190.246Y-214.122
X190.424Y-156.54
X190.424Y-157.81
X190.424Y-159.08
X191.262Y-31.496
X192.024Y-8.382
X192.024Y-142.24
X192.024Y-144.272
X192.532Y-141.224
X192.532Y-143.256
X193.548Y-28.194
X193.548Y-142.24
X193.548Y-144.272
X194.056Y-141.224
X194.056Y-143.256
X194.31Y-210.312
X195.072Y-21.082
X195.072Y-142.24
X195.072Y-144.272
X195.072Y-204.724
X195.326Y-196.088
X195.58Y-141.224
X195.58Y-143.256
X195.58Y-182.88
X195.698Y-57.033
X196.596Y-142.24
X196.596Y-144.272
X197.104Y-141.224
X197.104Y-143.256
X197.261Y-88.891
X198.12Y-142.24
X198.12Y-144.272
X198.628Y-23.83
X198.628Y-29.418
X198.628Y-141.224
X198.628Y-143.256
X199.518Y-163.955
X199.791Y-21.59
X200.152Y-174.244
X200.914Y-201.422
X201.168Y-23.83
X201.168Y-29.464
X201.168Y-102.108
X201.168Y-115.824
X201.168Y-183.134
X201.168Y-195.326
X201.168Y-204.724
X201.309Y-186.182
X202.438Y-17.78
X202.946Y-210.312
X203.2Y-68.072
X203.353Y-153.709
X204.978Y-18.034
X205.486Y-32.258
X206.248Y-25.146
T2
X-3.934Y-191.706
X-3.934Y-192.506
X-3.934Y-193.306
X-3.934Y-194.906
X-3.934Y-195.706
X-3.934Y-196.506
X-3.234Y-191.306
X-3.234Y-192.906
X-3.234Y-193.706
X-3.234Y-194.506
X-3.234Y-195.306
X-3.234Y-196.906
T4
X38.354Y-197.099
X38.354Y-199.639
T5
X191.13Y-48.33
X200.03Y-48.33
T6
X191.13Y-38.03
X200.03Y-38.03
T3
X-7.984Y-189.566G85X-8.584Y-189.566
G05
X-7.984Y-198.546G85X-8.584Y-198.546
G05
X-3.534Y-189.976G85X-4.134Y-189.976
G05
X-3.534Y-198.236G85X-4.134Y-198.236
G05
T0
M30
