%FSLAX45Y45*%
G04 Gerber Fmt 4.5, Leading zero omitted, Abs format (unit mm)*
G04 Created by KiCad (PCBNEW (6.0.0)) date 2022-01-30 17:44:56*
%MOMM*%
%LPD*%
G01*
G04 APERTURE LIST*
%TA.AperFunction,Profile*%
%ADD10C,0.100000*%
%TD*%
%ADD11C,0.200000*%
%ADD12C,0.065000*%
%ADD13C,0.090000*%
%ADD14C,0.100000*%
%ADD15C,0.239000*%
%ADD16C,0.320000*%
%ADD17C,0.345000*%
G04 APERTURE END LIST*
D10*
X-1000000Y0D02*
X21000000Y0D01*
X21000000Y0D02*
X21000000Y-22000000D01*
X21000000Y-22000000D02*
X-1000000Y-22000000D01*
X-1000000Y-22000000D02*
X-1000000Y0D01*
D11*
D12*
X-290900Y-19018100D02*
X-225900Y-19083100D01*
X-225900Y-19018100D02*
X-290900Y-19083100D01*
X-290900Y-19738100D02*
X-225900Y-19803100D01*
X-225900Y-19738100D02*
X-290900Y-19803100D01*
D13*
X18450200Y-533400D02*
G75*
G03*
X18450200Y-533400I-45000J0D01*
G01*
X19130200Y-533400D02*
G75*
G03*
X19130200Y-533400I-45000J0D01*
G01*
D14*
X5184000Y-21106200D02*
X5184000Y-21206200D01*
X5134000Y-21156200D02*
X5234000Y-21156200D01*
X5984000Y-21106200D02*
X5984000Y-21206200D01*
X5934000Y-21156200D02*
X6034000Y-21156200D01*
D15*
X-215500Y-7491500D02*
X-215500Y-7322500D01*
X-384500Y-7322500D01*
X-384500Y-7491500D01*
X-215500Y-7491500D01*
X18784500Y-7491500D02*
X18784500Y-7322500D01*
X18615500Y-7322500D01*
X18615500Y-7491500D01*
X18784500Y-7491500D01*
D16*
X-500000Y-660000D02*
X-340000Y-500000D01*
X-500000Y-340000D01*
X-660000Y-500000D01*
X-500000Y-660000D01*
X-500000Y-21660000D02*
X-340000Y-21500000D01*
X-500000Y-21340000D01*
X-660000Y-21500000D01*
X-500000Y-21660000D01*
X20500000Y-660000D02*
X20660000Y-500000D01*
X20500000Y-340000D01*
X20340000Y-500000D01*
X20500000Y-660000D01*
X20500000Y-21660000D02*
X20660000Y-21500000D01*
X20500000Y-21340000D01*
X20340000Y-21500000D01*
X20500000Y-21660000D01*
D17*
X-472500Y-13587500D02*
X-127500Y-13932500D01*
X-127500Y-13587500D02*
X-472500Y-13932500D01*
X-127500Y-13760000D02*
G75*
G03*
X-127500Y-13760000I-172500J0D01*
G01*
X1127500Y-8067500D02*
X1472500Y-8412500D01*
X1472500Y-8067500D02*
X1127500Y-8412500D01*
X1472500Y-8240000D02*
G75*
G03*
X1472500Y-8240000I-172500J0D01*
G01*
X18527500Y-13587500D02*
X18872500Y-13932500D01*
X18872500Y-13587500D02*
X18527500Y-13932500D01*
X18872500Y-13760000D02*
G75*
G03*
X18872500Y-13760000I-172500J0D01*
G01*
X20127500Y-8067500D02*
X20472500Y-8412500D01*
X20472500Y-8067500D02*
X20127500Y-8412500D01*
X20472500Y-8240000D02*
G75*
G03*
X20472500Y-8240000I-172500J0D01*
G01*
D11*
X-747381Y-22315476D02*
X-747381Y-22115476D01*
X-699762Y-22115476D01*
X-671190Y-22125000D01*
X-652143Y-22144048D01*
X-642619Y-22163095D01*
X-633095Y-22201190D01*
X-633095Y-22229762D01*
X-642619Y-22267857D01*
X-652143Y-22286905D01*
X-671190Y-22305952D01*
X-699762Y-22315476D01*
X-747381Y-22315476D01*
X-547381Y-22315476D02*
X-547381Y-22182143D01*
X-547381Y-22220238D02*
X-537857Y-22201190D01*
X-528333Y-22191667D01*
X-509286Y-22182143D01*
X-490238Y-22182143D01*
X-423571Y-22315476D02*
X-423571Y-22182143D01*
X-423571Y-22115476D02*
X-433095Y-22125000D01*
X-423571Y-22134524D01*
X-414048Y-22125000D01*
X-423571Y-22115476D01*
X-423571Y-22134524D01*
X-299762Y-22315476D02*
X-318810Y-22305952D01*
X-328333Y-22286905D01*
X-328333Y-22115476D01*
X-195000Y-22315476D02*
X-214048Y-22305952D01*
X-223571Y-22286905D01*
X-223571Y-22115476D01*
X33571Y-22315476D02*
X33571Y-22115476D01*
X100238Y-22258333D01*
X166905Y-22115476D01*
X166905Y-22315476D01*
X347857Y-22315476D02*
X347857Y-22210714D01*
X338333Y-22191667D01*
X319286Y-22182143D01*
X281190Y-22182143D01*
X262143Y-22191667D01*
X347857Y-22305952D02*
X328810Y-22315476D01*
X281190Y-22315476D01*
X262143Y-22305952D01*
X252619Y-22286905D01*
X252619Y-22267857D01*
X262143Y-22248810D01*
X281190Y-22239286D01*
X328810Y-22239286D01*
X347857Y-22229762D01*
X443095Y-22182143D02*
X443095Y-22382143D01*
X443095Y-22191667D02*
X462143Y-22182143D01*
X500238Y-22182143D01*
X519286Y-22191667D01*
X528810Y-22201190D01*
X538333Y-22220238D01*
X538333Y-22277381D01*
X528810Y-22296429D01*
X519286Y-22305952D01*
X500238Y-22315476D01*
X462143Y-22315476D01*
X443095Y-22305952D01*
X624048Y-22296429D02*
X633571Y-22305952D01*
X624048Y-22315476D01*
X614524Y-22305952D01*
X624048Y-22296429D01*
X624048Y-22315476D01*
X624048Y-22191667D02*
X633571Y-22201190D01*
X624048Y-22210714D01*
X614524Y-22201190D01*
X624048Y-22191667D01*
X624048Y-22210714D01*
D12*
X-1070000Y-22612500D02*
X-1005000Y-22677500D01*
X-1005000Y-22612500D02*
X-1070000Y-22677500D01*
D11*
X-709286Y-22535476D02*
X-690238Y-22535476D01*
X-671190Y-22545000D01*
X-661667Y-22554524D01*
X-652143Y-22573571D01*
X-642619Y-22611667D01*
X-642619Y-22659286D01*
X-652143Y-22697381D01*
X-661667Y-22716428D01*
X-671190Y-22725952D01*
X-690238Y-22735476D01*
X-709286Y-22735476D01*
X-728333Y-22725952D01*
X-737857Y-22716428D01*
X-747381Y-22697381D01*
X-756905Y-22659286D01*
X-756905Y-22611667D01*
X-747381Y-22573571D01*
X-737857Y-22554524D01*
X-728333Y-22545000D01*
X-709286Y-22535476D01*
X-556905Y-22716428D02*
X-547381Y-22725952D01*
X-556905Y-22735476D01*
X-566429Y-22725952D01*
X-556905Y-22716428D01*
X-556905Y-22735476D01*
X-375952Y-22535476D02*
X-414048Y-22535476D01*
X-433095Y-22545000D01*
X-442619Y-22554524D01*
X-461667Y-22583095D01*
X-471190Y-22621190D01*
X-471190Y-22697381D01*
X-461667Y-22716428D01*
X-452143Y-22725952D01*
X-433095Y-22735476D01*
X-395000Y-22735476D01*
X-375952Y-22725952D01*
X-366428Y-22716428D01*
X-356905Y-22697381D01*
X-356905Y-22649762D01*
X-366428Y-22630714D01*
X-375952Y-22621190D01*
X-395000Y-22611667D01*
X-433095Y-22611667D01*
X-452143Y-22621190D01*
X-461667Y-22630714D01*
X-471190Y-22649762D01*
X-175952Y-22535476D02*
X-271190Y-22535476D01*
X-280714Y-22630714D01*
X-271190Y-22621190D01*
X-252143Y-22611667D01*
X-204524Y-22611667D01*
X-185476Y-22621190D01*
X-175952Y-22630714D01*
X-166429Y-22649762D01*
X-166429Y-22697381D01*
X-175952Y-22716428D01*
X-185476Y-22725952D01*
X-204524Y-22735476D01*
X-252143Y-22735476D01*
X-271190Y-22725952D01*
X-280714Y-22716428D01*
X-42619Y-22535476D02*
X-23571Y-22535476D01*
X-4524Y-22545000D01*
X5000Y-22554524D01*
X14524Y-22573571D01*
X24048Y-22611667D01*
X24048Y-22659286D01*
X14524Y-22697381D01*
X5000Y-22716428D01*
X-4524Y-22725952D01*
X-23571Y-22735476D01*
X-42619Y-22735476D01*
X-61667Y-22725952D01*
X-71190Y-22716428D01*
X-80714Y-22697381D01*
X-90238Y-22659286D01*
X-90238Y-22611667D01*
X-80714Y-22573571D01*
X-71190Y-22554524D01*
X-61667Y-22545000D01*
X-42619Y-22535476D01*
X109762Y-22735476D02*
X109762Y-22602143D01*
X109762Y-22621190D02*
X119286Y-22611667D01*
X138333Y-22602143D01*
X166905Y-22602143D01*
X185952Y-22611667D01*
X195476Y-22630714D01*
X195476Y-22735476D01*
X195476Y-22630714D02*
X205000Y-22611667D01*
X224048Y-22602143D01*
X252619Y-22602143D01*
X271667Y-22611667D01*
X281190Y-22630714D01*
X281190Y-22735476D01*
X376428Y-22735476D02*
X376428Y-22602143D01*
X376428Y-22621190D02*
X385952Y-22611667D01*
X405000Y-22602143D01*
X433571Y-22602143D01*
X452619Y-22611667D01*
X462143Y-22630714D01*
X462143Y-22735476D01*
X462143Y-22630714D02*
X471667Y-22611667D01*
X490714Y-22602143D01*
X519286Y-22602143D01*
X538333Y-22611667D01*
X547857Y-22630714D01*
X547857Y-22735476D01*
X938333Y-22525952D02*
X766905Y-22783095D01*
X1195476Y-22535476D02*
X1214524Y-22535476D01*
X1233571Y-22545000D01*
X1243095Y-22554524D01*
X1252619Y-22573571D01*
X1262143Y-22611667D01*
X1262143Y-22659286D01*
X1252619Y-22697381D01*
X1243095Y-22716428D01*
X1233571Y-22725952D01*
X1214524Y-22735476D01*
X1195476Y-22735476D01*
X1176429Y-22725952D01*
X1166905Y-22716428D01*
X1157381Y-22697381D01*
X1147857Y-22659286D01*
X1147857Y-22611667D01*
X1157381Y-22573571D01*
X1166905Y-22554524D01*
X1176429Y-22545000D01*
X1195476Y-22535476D01*
X1347857Y-22716428D02*
X1357381Y-22725952D01*
X1347857Y-22735476D01*
X1338333Y-22725952D01*
X1347857Y-22716428D01*
X1347857Y-22735476D01*
X1481190Y-22535476D02*
X1500238Y-22535476D01*
X1519286Y-22545000D01*
X1528809Y-22554524D01*
X1538333Y-22573571D01*
X1547857Y-22611667D01*
X1547857Y-22659286D01*
X1538333Y-22697381D01*
X1528809Y-22716428D01*
X1519286Y-22725952D01*
X1500238Y-22735476D01*
X1481190Y-22735476D01*
X1462143Y-22725952D01*
X1452619Y-22716428D01*
X1443095Y-22697381D01*
X1433571Y-22659286D01*
X1433571Y-22611667D01*
X1443095Y-22573571D01*
X1452619Y-22554524D01*
X1462143Y-22545000D01*
X1481190Y-22535476D01*
X1624048Y-22554524D02*
X1633571Y-22545000D01*
X1652619Y-22535476D01*
X1700238Y-22535476D01*
X1719286Y-22545000D01*
X1728809Y-22554524D01*
X1738333Y-22573571D01*
X1738333Y-22592619D01*
X1728809Y-22621190D01*
X1614524Y-22735476D01*
X1738333Y-22735476D01*
X1919286Y-22535476D02*
X1824048Y-22535476D01*
X1814524Y-22630714D01*
X1824048Y-22621190D01*
X1843095Y-22611667D01*
X1890714Y-22611667D01*
X1909762Y-22621190D01*
X1919286Y-22630714D01*
X1928809Y-22649762D01*
X1928809Y-22697381D01*
X1919286Y-22716428D01*
X1909762Y-22725952D01*
X1890714Y-22735476D01*
X1843095Y-22735476D01*
X1824048Y-22725952D01*
X1814524Y-22716428D01*
X2100238Y-22535476D02*
X2062143Y-22535476D01*
X2043095Y-22545000D01*
X2033571Y-22554524D01*
X2014524Y-22583095D01*
X2005000Y-22621190D01*
X2005000Y-22697381D01*
X2014524Y-22716428D01*
X2024048Y-22725952D01*
X2043095Y-22735476D01*
X2081190Y-22735476D01*
X2100238Y-22725952D01*
X2109762Y-22716428D01*
X2119286Y-22697381D01*
X2119286Y-22649762D01*
X2109762Y-22630714D01*
X2100238Y-22621190D01*
X2081190Y-22611667D01*
X2043095Y-22611667D01*
X2024048Y-22621190D01*
X2014524Y-22630714D01*
X2005000Y-22649762D01*
X2195476Y-22535476D02*
X2195476Y-22573571D01*
X2271667Y-22535476D02*
X2271667Y-22573571D01*
X2566905Y-22811667D02*
X2557381Y-22802143D01*
X2538333Y-22773571D01*
X2528810Y-22754524D01*
X2519286Y-22725952D01*
X2509762Y-22678333D01*
X2509762Y-22640238D01*
X2519286Y-22592619D01*
X2528810Y-22564048D01*
X2538333Y-22545000D01*
X2557381Y-22516428D01*
X2566905Y-22506905D01*
X2633571Y-22554524D02*
X2643095Y-22545000D01*
X2662143Y-22535476D01*
X2709762Y-22535476D01*
X2728810Y-22545000D01*
X2738333Y-22554524D01*
X2747857Y-22573571D01*
X2747857Y-22592619D01*
X2738333Y-22621190D01*
X2624048Y-22735476D01*
X2747857Y-22735476D01*
X2985952Y-22735476D02*
X2985952Y-22535476D01*
X3071667Y-22735476D02*
X3071667Y-22630714D01*
X3062143Y-22611667D01*
X3043095Y-22602143D01*
X3014524Y-22602143D01*
X2995476Y-22611667D01*
X2985952Y-22621190D01*
X3195476Y-22735476D02*
X3176428Y-22725952D01*
X3166905Y-22716428D01*
X3157381Y-22697381D01*
X3157381Y-22640238D01*
X3166905Y-22621190D01*
X3176428Y-22611667D01*
X3195476Y-22602143D01*
X3224048Y-22602143D01*
X3243095Y-22611667D01*
X3252619Y-22621190D01*
X3262143Y-22640238D01*
X3262143Y-22697381D01*
X3252619Y-22716428D01*
X3243095Y-22725952D01*
X3224048Y-22735476D01*
X3195476Y-22735476D01*
X3376428Y-22735476D02*
X3357381Y-22725952D01*
X3347857Y-22706905D01*
X3347857Y-22535476D01*
X3528809Y-22725952D02*
X3509762Y-22735476D01*
X3471667Y-22735476D01*
X3452619Y-22725952D01*
X3443095Y-22706905D01*
X3443095Y-22630714D01*
X3452619Y-22611667D01*
X3471667Y-22602143D01*
X3509762Y-22602143D01*
X3528809Y-22611667D01*
X3538333Y-22630714D01*
X3538333Y-22649762D01*
X3443095Y-22668809D01*
X3614524Y-22725952D02*
X3633571Y-22735476D01*
X3671667Y-22735476D01*
X3690714Y-22725952D01*
X3700238Y-22706905D01*
X3700238Y-22697381D01*
X3690714Y-22678333D01*
X3671667Y-22668809D01*
X3643095Y-22668809D01*
X3624048Y-22659286D01*
X3614524Y-22640238D01*
X3614524Y-22630714D01*
X3624048Y-22611667D01*
X3643095Y-22602143D01*
X3671667Y-22602143D01*
X3690714Y-22611667D01*
X3766905Y-22811667D02*
X3776428Y-22802143D01*
X3795476Y-22773571D01*
X3805000Y-22754524D01*
X3814524Y-22725952D01*
X3824048Y-22678333D01*
X3824048Y-22640238D01*
X3814524Y-22592619D01*
X3805000Y-22564048D01*
X3795476Y-22545000D01*
X3776428Y-22516428D01*
X3766905Y-22506905D01*
X4128809Y-22811667D02*
X4119286Y-22802143D01*
X4100238Y-22773571D01*
X4090714Y-22754524D01*
X4081190Y-22725952D01*
X4071667Y-22678333D01*
X4071667Y-22640238D01*
X4081190Y-22592619D01*
X4090714Y-22564048D01*
X4100238Y-22545000D01*
X4119286Y-22516428D01*
X4128809Y-22506905D01*
X4205000Y-22602143D02*
X4205000Y-22735476D01*
X4205000Y-22621190D02*
X4214524Y-22611667D01*
X4233571Y-22602143D01*
X4262143Y-22602143D01*
X4281190Y-22611667D01*
X4290714Y-22630714D01*
X4290714Y-22735476D01*
X4414524Y-22735476D02*
X4395476Y-22725952D01*
X4385952Y-22716428D01*
X4376429Y-22697381D01*
X4376429Y-22640238D01*
X4385952Y-22621190D01*
X4395476Y-22611667D01*
X4414524Y-22602143D01*
X4443095Y-22602143D01*
X4462143Y-22611667D01*
X4471667Y-22621190D01*
X4481190Y-22640238D01*
X4481190Y-22697381D01*
X4471667Y-22716428D01*
X4462143Y-22725952D01*
X4443095Y-22735476D01*
X4414524Y-22735476D01*
X4538333Y-22602143D02*
X4614524Y-22602143D01*
X4566905Y-22535476D02*
X4566905Y-22706905D01*
X4576429Y-22725952D01*
X4595476Y-22735476D01*
X4614524Y-22735476D01*
X4833571Y-22602143D02*
X4833571Y-22802143D01*
X4833571Y-22611667D02*
X4852619Y-22602143D01*
X4890714Y-22602143D01*
X4909762Y-22611667D01*
X4919286Y-22621190D01*
X4928810Y-22640238D01*
X4928810Y-22697381D01*
X4919286Y-22716428D01*
X4909762Y-22725952D01*
X4890714Y-22735476D01*
X4852619Y-22735476D01*
X4833571Y-22725952D01*
X5043095Y-22735476D02*
X5024048Y-22725952D01*
X5014524Y-22706905D01*
X5014524Y-22535476D01*
X5205000Y-22735476D02*
X5205000Y-22630714D01*
X5195476Y-22611667D01*
X5176429Y-22602143D01*
X5138333Y-22602143D01*
X5119286Y-22611667D01*
X5205000Y-22725952D02*
X5185952Y-22735476D01*
X5138333Y-22735476D01*
X5119286Y-22725952D01*
X5109762Y-22706905D01*
X5109762Y-22687857D01*
X5119286Y-22668809D01*
X5138333Y-22659286D01*
X5185952Y-22659286D01*
X5205000Y-22649762D01*
X5271667Y-22602143D02*
X5347857Y-22602143D01*
X5300238Y-22535476D02*
X5300238Y-22706905D01*
X5309762Y-22725952D01*
X5328810Y-22735476D01*
X5347857Y-22735476D01*
X5490714Y-22725952D02*
X5471667Y-22735476D01*
X5433571Y-22735476D01*
X5414524Y-22725952D01*
X5405000Y-22706905D01*
X5405000Y-22630714D01*
X5414524Y-22611667D01*
X5433571Y-22602143D01*
X5471667Y-22602143D01*
X5490714Y-22611667D01*
X5500238Y-22630714D01*
X5500238Y-22649762D01*
X5405000Y-22668809D01*
X5671667Y-22735476D02*
X5671667Y-22535476D01*
X5671667Y-22725952D02*
X5652619Y-22735476D01*
X5614524Y-22735476D01*
X5595476Y-22725952D01*
X5585952Y-22716428D01*
X5576429Y-22697381D01*
X5576429Y-22640238D01*
X5585952Y-22621190D01*
X5595476Y-22611667D01*
X5614524Y-22602143D01*
X5652619Y-22602143D01*
X5671667Y-22611667D01*
X5747857Y-22811667D02*
X5757381Y-22802143D01*
X5776428Y-22773571D01*
X5785952Y-22754524D01*
X5795476Y-22725952D01*
X5805000Y-22678333D01*
X5805000Y-22640238D01*
X5795476Y-22592619D01*
X5785952Y-22564048D01*
X5776428Y-22545000D01*
X5757381Y-22516428D01*
X5747857Y-22506905D01*
D13*
X-1005000Y-22909000D02*
G75*
G03*
X-1005000Y-22909000I-45000J0D01*
G01*
D11*
X-709286Y-22799476D02*
X-690238Y-22799476D01*
X-671190Y-22809000D01*
X-661667Y-22818524D01*
X-652143Y-22837571D01*
X-642619Y-22875667D01*
X-642619Y-22923286D01*
X-652143Y-22961381D01*
X-661667Y-22980428D01*
X-671190Y-22989952D01*
X-690238Y-22999476D01*
X-709286Y-22999476D01*
X-728333Y-22989952D01*
X-737857Y-22980428D01*
X-747381Y-22961381D01*
X-756905Y-22923286D01*
X-756905Y-22875667D01*
X-747381Y-22837571D01*
X-737857Y-22818524D01*
X-728333Y-22809000D01*
X-709286Y-22799476D01*
X-556905Y-22980428D02*
X-547381Y-22989952D01*
X-556905Y-22999476D01*
X-566429Y-22989952D01*
X-556905Y-22980428D01*
X-556905Y-22999476D01*
X-452143Y-22999476D02*
X-414048Y-22999476D01*
X-395000Y-22989952D01*
X-385476Y-22980428D01*
X-366428Y-22951857D01*
X-356905Y-22913762D01*
X-356905Y-22837571D01*
X-366428Y-22818524D01*
X-375952Y-22809000D01*
X-395000Y-22799476D01*
X-433095Y-22799476D01*
X-452143Y-22809000D01*
X-461667Y-22818524D01*
X-471190Y-22837571D01*
X-471190Y-22885190D01*
X-461667Y-22904238D01*
X-452143Y-22913762D01*
X-433095Y-22923286D01*
X-395000Y-22923286D01*
X-375952Y-22913762D01*
X-366428Y-22904238D01*
X-356905Y-22885190D01*
X-233095Y-22799476D02*
X-214048Y-22799476D01*
X-195000Y-22809000D01*
X-185476Y-22818524D01*
X-175952Y-22837571D01*
X-166429Y-22875667D01*
X-166429Y-22923286D01*
X-175952Y-22961381D01*
X-185476Y-22980428D01*
X-195000Y-22989952D01*
X-214048Y-22999476D01*
X-233095Y-22999476D01*
X-252143Y-22989952D01*
X-261667Y-22980428D01*
X-271190Y-22961381D01*
X-280714Y-22923286D01*
X-280714Y-22875667D01*
X-271190Y-22837571D01*
X-261667Y-22818524D01*
X-252143Y-22809000D01*
X-233095Y-22799476D01*
X-42619Y-22799476D02*
X-23571Y-22799476D01*
X-4524Y-22809000D01*
X5000Y-22818524D01*
X14524Y-22837571D01*
X24048Y-22875667D01*
X24048Y-22923286D01*
X14524Y-22961381D01*
X5000Y-22980428D01*
X-4524Y-22989952D01*
X-23571Y-22999476D01*
X-42619Y-22999476D01*
X-61667Y-22989952D01*
X-71190Y-22980428D01*
X-80714Y-22961381D01*
X-90238Y-22923286D01*
X-90238Y-22875667D01*
X-80714Y-22837571D01*
X-71190Y-22818524D01*
X-61667Y-22809000D01*
X-42619Y-22799476D01*
X109762Y-22999476D02*
X109762Y-22866143D01*
X109762Y-22885190D02*
X119286Y-22875667D01*
X138333Y-22866143D01*
X166905Y-22866143D01*
X185952Y-22875667D01*
X195476Y-22894714D01*
X195476Y-22999476D01*
X195476Y-22894714D02*
X205000Y-22875667D01*
X224048Y-22866143D01*
X252619Y-22866143D01*
X271667Y-22875667D01*
X281190Y-22894714D01*
X281190Y-22999476D01*
X376428Y-22999476D02*
X376428Y-22866143D01*
X376428Y-22885190D02*
X385952Y-22875667D01*
X405000Y-22866143D01*
X433571Y-22866143D01*
X452619Y-22875667D01*
X462143Y-22894714D01*
X462143Y-22999476D01*
X462143Y-22894714D02*
X471667Y-22875667D01*
X490714Y-22866143D01*
X519286Y-22866143D01*
X538333Y-22875667D01*
X547857Y-22894714D01*
X547857Y-22999476D01*
X938333Y-22789952D02*
X766905Y-23047095D01*
X1195476Y-22799476D02*
X1214524Y-22799476D01*
X1233571Y-22809000D01*
X1243095Y-22818524D01*
X1252619Y-22837571D01*
X1262143Y-22875667D01*
X1262143Y-22923286D01*
X1252619Y-22961381D01*
X1243095Y-22980428D01*
X1233571Y-22989952D01*
X1214524Y-22999476D01*
X1195476Y-22999476D01*
X1176429Y-22989952D01*
X1166905Y-22980428D01*
X1157381Y-22961381D01*
X1147857Y-22923286D01*
X1147857Y-22875667D01*
X1157381Y-22837571D01*
X1166905Y-22818524D01*
X1176429Y-22809000D01*
X1195476Y-22799476D01*
X1347857Y-22980428D02*
X1357381Y-22989952D01*
X1347857Y-22999476D01*
X1338333Y-22989952D01*
X1347857Y-22980428D01*
X1347857Y-22999476D01*
X1481190Y-22799476D02*
X1500238Y-22799476D01*
X1519286Y-22809000D01*
X1528809Y-22818524D01*
X1538333Y-22837571D01*
X1547857Y-22875667D01*
X1547857Y-22923286D01*
X1538333Y-22961381D01*
X1528809Y-22980428D01*
X1519286Y-22989952D01*
X1500238Y-22999476D01*
X1481190Y-22999476D01*
X1462143Y-22989952D01*
X1452619Y-22980428D01*
X1443095Y-22961381D01*
X1433571Y-22923286D01*
X1433571Y-22875667D01*
X1443095Y-22837571D01*
X1452619Y-22818524D01*
X1462143Y-22809000D01*
X1481190Y-22799476D01*
X1614524Y-22799476D02*
X1738333Y-22799476D01*
X1671667Y-22875667D01*
X1700238Y-22875667D01*
X1719286Y-22885190D01*
X1728809Y-22894714D01*
X1738333Y-22913762D01*
X1738333Y-22961381D01*
X1728809Y-22980428D01*
X1719286Y-22989952D01*
X1700238Y-22999476D01*
X1643095Y-22999476D01*
X1624048Y-22989952D01*
X1614524Y-22980428D01*
X1919286Y-22799476D02*
X1824048Y-22799476D01*
X1814524Y-22894714D01*
X1824048Y-22885190D01*
X1843095Y-22875667D01*
X1890714Y-22875667D01*
X1909762Y-22885190D01*
X1919286Y-22894714D01*
X1928809Y-22913762D01*
X1928809Y-22961381D01*
X1919286Y-22980428D01*
X1909762Y-22989952D01*
X1890714Y-22999476D01*
X1843095Y-22999476D01*
X1824048Y-22989952D01*
X1814524Y-22980428D01*
X2100238Y-22866143D02*
X2100238Y-22999476D01*
X2052619Y-22789952D02*
X2005000Y-22932809D01*
X2128810Y-22932809D01*
X2195476Y-22799476D02*
X2195476Y-22837571D01*
X2271667Y-22799476D02*
X2271667Y-22837571D01*
X2566905Y-23075667D02*
X2557381Y-23066143D01*
X2538333Y-23037571D01*
X2528810Y-23018524D01*
X2519286Y-22989952D01*
X2509762Y-22942333D01*
X2509762Y-22904238D01*
X2519286Y-22856619D01*
X2528810Y-22828048D01*
X2538333Y-22809000D01*
X2557381Y-22780428D01*
X2566905Y-22770905D01*
X2633571Y-22818524D02*
X2643095Y-22809000D01*
X2662143Y-22799476D01*
X2709762Y-22799476D01*
X2728810Y-22809000D01*
X2738333Y-22818524D01*
X2747857Y-22837571D01*
X2747857Y-22856619D01*
X2738333Y-22885190D01*
X2624048Y-22999476D01*
X2747857Y-22999476D01*
X2985952Y-22999476D02*
X2985952Y-22799476D01*
X3071667Y-22999476D02*
X3071667Y-22894714D01*
X3062143Y-22875667D01*
X3043095Y-22866143D01*
X3014524Y-22866143D01*
X2995476Y-22875667D01*
X2985952Y-22885190D01*
X3195476Y-22999476D02*
X3176428Y-22989952D01*
X3166905Y-22980428D01*
X3157381Y-22961381D01*
X3157381Y-22904238D01*
X3166905Y-22885190D01*
X3176428Y-22875667D01*
X3195476Y-22866143D01*
X3224048Y-22866143D01*
X3243095Y-22875667D01*
X3252619Y-22885190D01*
X3262143Y-22904238D01*
X3262143Y-22961381D01*
X3252619Y-22980428D01*
X3243095Y-22989952D01*
X3224048Y-22999476D01*
X3195476Y-22999476D01*
X3376428Y-22999476D02*
X3357381Y-22989952D01*
X3347857Y-22970905D01*
X3347857Y-22799476D01*
X3528809Y-22989952D02*
X3509762Y-22999476D01*
X3471667Y-22999476D01*
X3452619Y-22989952D01*
X3443095Y-22970905D01*
X3443095Y-22894714D01*
X3452619Y-22875667D01*
X3471667Y-22866143D01*
X3509762Y-22866143D01*
X3528809Y-22875667D01*
X3538333Y-22894714D01*
X3538333Y-22913762D01*
X3443095Y-22932809D01*
X3614524Y-22989952D02*
X3633571Y-22999476D01*
X3671667Y-22999476D01*
X3690714Y-22989952D01*
X3700238Y-22970905D01*
X3700238Y-22961381D01*
X3690714Y-22942333D01*
X3671667Y-22932809D01*
X3643095Y-22932809D01*
X3624048Y-22923286D01*
X3614524Y-22904238D01*
X3614524Y-22894714D01*
X3624048Y-22875667D01*
X3643095Y-22866143D01*
X3671667Y-22866143D01*
X3690714Y-22875667D01*
X3766905Y-23075667D02*
X3776428Y-23066143D01*
X3795476Y-23037571D01*
X3805000Y-23018524D01*
X3814524Y-22989952D01*
X3824048Y-22942333D01*
X3824048Y-22904238D01*
X3814524Y-22856619D01*
X3805000Y-22828048D01*
X3795476Y-22809000D01*
X3776428Y-22780428D01*
X3766905Y-22770905D01*
X4128809Y-23075667D02*
X4119286Y-23066143D01*
X4100238Y-23037571D01*
X4090714Y-23018524D01*
X4081190Y-22989952D01*
X4071667Y-22942333D01*
X4071667Y-22904238D01*
X4081190Y-22856619D01*
X4090714Y-22828048D01*
X4100238Y-22809000D01*
X4119286Y-22780428D01*
X4128809Y-22770905D01*
X4205000Y-22866143D02*
X4205000Y-22999476D01*
X4205000Y-22885190D02*
X4214524Y-22875667D01*
X4233571Y-22866143D01*
X4262143Y-22866143D01*
X4281190Y-22875667D01*
X4290714Y-22894714D01*
X4290714Y-22999476D01*
X4414524Y-22999476D02*
X4395476Y-22989952D01*
X4385952Y-22980428D01*
X4376429Y-22961381D01*
X4376429Y-22904238D01*
X4385952Y-22885190D01*
X4395476Y-22875667D01*
X4414524Y-22866143D01*
X4443095Y-22866143D01*
X4462143Y-22875667D01*
X4471667Y-22885190D01*
X4481190Y-22904238D01*
X4481190Y-22961381D01*
X4471667Y-22980428D01*
X4462143Y-22989952D01*
X4443095Y-22999476D01*
X4414524Y-22999476D01*
X4538333Y-22866143D02*
X4614524Y-22866143D01*
X4566905Y-22799476D02*
X4566905Y-22970905D01*
X4576429Y-22989952D01*
X4595476Y-22999476D01*
X4614524Y-22999476D01*
X4833571Y-22866143D02*
X4833571Y-23066143D01*
X4833571Y-22875667D02*
X4852619Y-22866143D01*
X4890714Y-22866143D01*
X4909762Y-22875667D01*
X4919286Y-22885190D01*
X4928810Y-22904238D01*
X4928810Y-22961381D01*
X4919286Y-22980428D01*
X4909762Y-22989952D01*
X4890714Y-22999476D01*
X4852619Y-22999476D01*
X4833571Y-22989952D01*
X5043095Y-22999476D02*
X5024048Y-22989952D01*
X5014524Y-22970905D01*
X5014524Y-22799476D01*
X5205000Y-22999476D02*
X5205000Y-22894714D01*
X5195476Y-22875667D01*
X5176429Y-22866143D01*
X5138333Y-22866143D01*
X5119286Y-22875667D01*
X5205000Y-22989952D02*
X5185952Y-22999476D01*
X5138333Y-22999476D01*
X5119286Y-22989952D01*
X5109762Y-22970905D01*
X5109762Y-22951857D01*
X5119286Y-22932809D01*
X5138333Y-22923286D01*
X5185952Y-22923286D01*
X5205000Y-22913762D01*
X5271667Y-22866143D02*
X5347857Y-22866143D01*
X5300238Y-22799476D02*
X5300238Y-22970905D01*
X5309762Y-22989952D01*
X5328810Y-22999476D01*
X5347857Y-22999476D01*
X5490714Y-22989952D02*
X5471667Y-22999476D01*
X5433571Y-22999476D01*
X5414524Y-22989952D01*
X5405000Y-22970905D01*
X5405000Y-22894714D01*
X5414524Y-22875667D01*
X5433571Y-22866143D01*
X5471667Y-22866143D01*
X5490714Y-22875667D01*
X5500238Y-22894714D01*
X5500238Y-22913762D01*
X5405000Y-22932809D01*
X5671667Y-22999476D02*
X5671667Y-22799476D01*
X5671667Y-22989952D02*
X5652619Y-22999476D01*
X5614524Y-22999476D01*
X5595476Y-22989952D01*
X5585952Y-22980428D01*
X5576429Y-22961381D01*
X5576429Y-22904238D01*
X5585952Y-22885190D01*
X5595476Y-22875667D01*
X5614524Y-22866143D01*
X5652619Y-22866143D01*
X5671667Y-22875667D01*
X5747857Y-23075667D02*
X5757381Y-23066143D01*
X5776428Y-23037571D01*
X5785952Y-23018524D01*
X5795476Y-22989952D01*
X5805000Y-22942333D01*
X5805000Y-22904238D01*
X5795476Y-22856619D01*
X5785952Y-22828048D01*
X5776428Y-22809000D01*
X5757381Y-22780428D01*
X5747857Y-22770905D01*
D14*
X-1055000Y-23123000D02*
X-1055000Y-23223000D01*
X-1105000Y-23173000D02*
X-1005000Y-23173000D01*
D11*
X-642619Y-23263476D02*
X-756905Y-23263476D01*
X-699762Y-23263476D02*
X-699762Y-23063476D01*
X-718809Y-23092048D01*
X-737857Y-23111095D01*
X-756905Y-23120619D01*
X-556905Y-23244428D02*
X-547381Y-23253952D01*
X-556905Y-23263476D01*
X-566429Y-23253952D01*
X-556905Y-23244428D01*
X-556905Y-23263476D01*
X-423571Y-23063476D02*
X-404524Y-23063476D01*
X-385476Y-23073000D01*
X-375952Y-23082524D01*
X-366428Y-23101571D01*
X-356905Y-23139667D01*
X-356905Y-23187286D01*
X-366428Y-23225381D01*
X-375952Y-23244428D01*
X-385476Y-23253952D01*
X-404524Y-23263476D01*
X-423571Y-23263476D01*
X-442619Y-23253952D01*
X-452143Y-23244428D01*
X-461667Y-23225381D01*
X-471190Y-23187286D01*
X-471190Y-23139667D01*
X-461667Y-23101571D01*
X-452143Y-23082524D01*
X-442619Y-23073000D01*
X-423571Y-23063476D01*
X-233095Y-23063476D02*
X-214048Y-23063476D01*
X-195000Y-23073000D01*
X-185476Y-23082524D01*
X-175952Y-23101571D01*
X-166429Y-23139667D01*
X-166429Y-23187286D01*
X-175952Y-23225381D01*
X-185476Y-23244428D01*
X-195000Y-23253952D01*
X-214048Y-23263476D01*
X-233095Y-23263476D01*
X-252143Y-23253952D01*
X-261667Y-23244428D01*
X-271190Y-23225381D01*
X-280714Y-23187286D01*
X-280714Y-23139667D01*
X-271190Y-23101571D01*
X-261667Y-23082524D01*
X-252143Y-23073000D01*
X-233095Y-23063476D01*
X-42619Y-23063476D02*
X-23571Y-23063476D01*
X-4524Y-23073000D01*
X5000Y-23082524D01*
X14524Y-23101571D01*
X24048Y-23139667D01*
X24048Y-23187286D01*
X14524Y-23225381D01*
X5000Y-23244428D01*
X-4524Y-23253952D01*
X-23571Y-23263476D01*
X-42619Y-23263476D01*
X-61667Y-23253952D01*
X-71190Y-23244428D01*
X-80714Y-23225381D01*
X-90238Y-23187286D01*
X-90238Y-23139667D01*
X-80714Y-23101571D01*
X-71190Y-23082524D01*
X-61667Y-23073000D01*
X-42619Y-23063476D01*
X109762Y-23263476D02*
X109762Y-23130143D01*
X109762Y-23149190D02*
X119286Y-23139667D01*
X138333Y-23130143D01*
X166905Y-23130143D01*
X185952Y-23139667D01*
X195476Y-23158714D01*
X195476Y-23263476D01*
X195476Y-23158714D02*
X205000Y-23139667D01*
X224048Y-23130143D01*
X252619Y-23130143D01*
X271667Y-23139667D01*
X281190Y-23158714D01*
X281190Y-23263476D01*
X376428Y-23263476D02*
X376428Y-23130143D01*
X376428Y-23149190D02*
X385952Y-23139667D01*
X405000Y-23130143D01*
X433571Y-23130143D01*
X452619Y-23139667D01*
X462143Y-23158714D01*
X462143Y-23263476D01*
X462143Y-23158714D02*
X471667Y-23139667D01*
X490714Y-23130143D01*
X519286Y-23130143D01*
X538333Y-23139667D01*
X547857Y-23158714D01*
X547857Y-23263476D01*
X938333Y-23053952D02*
X766905Y-23311095D01*
X1195476Y-23063476D02*
X1214524Y-23063476D01*
X1233571Y-23073000D01*
X1243095Y-23082524D01*
X1252619Y-23101571D01*
X1262143Y-23139667D01*
X1262143Y-23187286D01*
X1252619Y-23225381D01*
X1243095Y-23244428D01*
X1233571Y-23253952D01*
X1214524Y-23263476D01*
X1195476Y-23263476D01*
X1176429Y-23253952D01*
X1166905Y-23244428D01*
X1157381Y-23225381D01*
X1147857Y-23187286D01*
X1147857Y-23139667D01*
X1157381Y-23101571D01*
X1166905Y-23082524D01*
X1176429Y-23073000D01*
X1195476Y-23063476D01*
X1347857Y-23244428D02*
X1357381Y-23253952D01*
X1347857Y-23263476D01*
X1338333Y-23253952D01*
X1347857Y-23244428D01*
X1347857Y-23263476D01*
X1481190Y-23063476D02*
X1500238Y-23063476D01*
X1519286Y-23073000D01*
X1528809Y-23082524D01*
X1538333Y-23101571D01*
X1547857Y-23139667D01*
X1547857Y-23187286D01*
X1538333Y-23225381D01*
X1528809Y-23244428D01*
X1519286Y-23253952D01*
X1500238Y-23263476D01*
X1481190Y-23263476D01*
X1462143Y-23253952D01*
X1452619Y-23244428D01*
X1443095Y-23225381D01*
X1433571Y-23187286D01*
X1433571Y-23139667D01*
X1443095Y-23101571D01*
X1452619Y-23082524D01*
X1462143Y-23073000D01*
X1481190Y-23063476D01*
X1614524Y-23063476D02*
X1738333Y-23063476D01*
X1671667Y-23139667D01*
X1700238Y-23139667D01*
X1719286Y-23149190D01*
X1728809Y-23158714D01*
X1738333Y-23177762D01*
X1738333Y-23225381D01*
X1728809Y-23244428D01*
X1719286Y-23253952D01*
X1700238Y-23263476D01*
X1643095Y-23263476D01*
X1624048Y-23253952D01*
X1614524Y-23244428D01*
X1833571Y-23263476D02*
X1871667Y-23263476D01*
X1890714Y-23253952D01*
X1900238Y-23244428D01*
X1919286Y-23215857D01*
X1928809Y-23177762D01*
X1928809Y-23101571D01*
X1919286Y-23082524D01*
X1909762Y-23073000D01*
X1890714Y-23063476D01*
X1852619Y-23063476D01*
X1833571Y-23073000D01*
X1824048Y-23082524D01*
X1814524Y-23101571D01*
X1814524Y-23149190D01*
X1824048Y-23168238D01*
X1833571Y-23177762D01*
X1852619Y-23187286D01*
X1890714Y-23187286D01*
X1909762Y-23177762D01*
X1919286Y-23168238D01*
X1928809Y-23149190D01*
X2100238Y-23130143D02*
X2100238Y-23263476D01*
X2052619Y-23053952D02*
X2005000Y-23196809D01*
X2128810Y-23196809D01*
X2195476Y-23063476D02*
X2195476Y-23101571D01*
X2271667Y-23063476D02*
X2271667Y-23101571D01*
X2566905Y-23339667D02*
X2557381Y-23330143D01*
X2538333Y-23301571D01*
X2528810Y-23282524D01*
X2519286Y-23253952D01*
X2509762Y-23206333D01*
X2509762Y-23168238D01*
X2519286Y-23120619D01*
X2528810Y-23092048D01*
X2538333Y-23073000D01*
X2557381Y-23044428D01*
X2566905Y-23034905D01*
X2633571Y-23082524D02*
X2643095Y-23073000D01*
X2662143Y-23063476D01*
X2709762Y-23063476D01*
X2728810Y-23073000D01*
X2738333Y-23082524D01*
X2747857Y-23101571D01*
X2747857Y-23120619D01*
X2738333Y-23149190D01*
X2624048Y-23263476D01*
X2747857Y-23263476D01*
X2985952Y-23263476D02*
X2985952Y-23063476D01*
X3071667Y-23263476D02*
X3071667Y-23158714D01*
X3062143Y-23139667D01*
X3043095Y-23130143D01*
X3014524Y-23130143D01*
X2995476Y-23139667D01*
X2985952Y-23149190D01*
X3195476Y-23263476D02*
X3176428Y-23253952D01*
X3166905Y-23244428D01*
X3157381Y-23225381D01*
X3157381Y-23168238D01*
X3166905Y-23149190D01*
X3176428Y-23139667D01*
X3195476Y-23130143D01*
X3224048Y-23130143D01*
X3243095Y-23139667D01*
X3252619Y-23149190D01*
X3262143Y-23168238D01*
X3262143Y-23225381D01*
X3252619Y-23244428D01*
X3243095Y-23253952D01*
X3224048Y-23263476D01*
X3195476Y-23263476D01*
X3376428Y-23263476D02*
X3357381Y-23253952D01*
X3347857Y-23234905D01*
X3347857Y-23063476D01*
X3528809Y-23253952D02*
X3509762Y-23263476D01*
X3471667Y-23263476D01*
X3452619Y-23253952D01*
X3443095Y-23234905D01*
X3443095Y-23158714D01*
X3452619Y-23139667D01*
X3471667Y-23130143D01*
X3509762Y-23130143D01*
X3528809Y-23139667D01*
X3538333Y-23158714D01*
X3538333Y-23177762D01*
X3443095Y-23196809D01*
X3614524Y-23253952D02*
X3633571Y-23263476D01*
X3671667Y-23263476D01*
X3690714Y-23253952D01*
X3700238Y-23234905D01*
X3700238Y-23225381D01*
X3690714Y-23206333D01*
X3671667Y-23196809D01*
X3643095Y-23196809D01*
X3624048Y-23187286D01*
X3614524Y-23168238D01*
X3614524Y-23158714D01*
X3624048Y-23139667D01*
X3643095Y-23130143D01*
X3671667Y-23130143D01*
X3690714Y-23139667D01*
X3766905Y-23339667D02*
X3776428Y-23330143D01*
X3795476Y-23301571D01*
X3805000Y-23282524D01*
X3814524Y-23253952D01*
X3824048Y-23206333D01*
X3824048Y-23168238D01*
X3814524Y-23120619D01*
X3805000Y-23092048D01*
X3795476Y-23073000D01*
X3776428Y-23044428D01*
X3766905Y-23034905D01*
X4128809Y-23339667D02*
X4119286Y-23330143D01*
X4100238Y-23301571D01*
X4090714Y-23282524D01*
X4081190Y-23253952D01*
X4071667Y-23206333D01*
X4071667Y-23168238D01*
X4081190Y-23120619D01*
X4090714Y-23092048D01*
X4100238Y-23073000D01*
X4119286Y-23044428D01*
X4128809Y-23034905D01*
X4205000Y-23130143D02*
X4205000Y-23263476D01*
X4205000Y-23149190D02*
X4214524Y-23139667D01*
X4233571Y-23130143D01*
X4262143Y-23130143D01*
X4281190Y-23139667D01*
X4290714Y-23158714D01*
X4290714Y-23263476D01*
X4414524Y-23263476D02*
X4395476Y-23253952D01*
X4385952Y-23244428D01*
X4376429Y-23225381D01*
X4376429Y-23168238D01*
X4385952Y-23149190D01*
X4395476Y-23139667D01*
X4414524Y-23130143D01*
X4443095Y-23130143D01*
X4462143Y-23139667D01*
X4471667Y-23149190D01*
X4481190Y-23168238D01*
X4481190Y-23225381D01*
X4471667Y-23244428D01*
X4462143Y-23253952D01*
X4443095Y-23263476D01*
X4414524Y-23263476D01*
X4538333Y-23130143D02*
X4614524Y-23130143D01*
X4566905Y-23063476D02*
X4566905Y-23234905D01*
X4576429Y-23253952D01*
X4595476Y-23263476D01*
X4614524Y-23263476D01*
X4833571Y-23130143D02*
X4833571Y-23330143D01*
X4833571Y-23139667D02*
X4852619Y-23130143D01*
X4890714Y-23130143D01*
X4909762Y-23139667D01*
X4919286Y-23149190D01*
X4928810Y-23168238D01*
X4928810Y-23225381D01*
X4919286Y-23244428D01*
X4909762Y-23253952D01*
X4890714Y-23263476D01*
X4852619Y-23263476D01*
X4833571Y-23253952D01*
X5043095Y-23263476D02*
X5024048Y-23253952D01*
X5014524Y-23234905D01*
X5014524Y-23063476D01*
X5205000Y-23263476D02*
X5205000Y-23158714D01*
X5195476Y-23139667D01*
X5176429Y-23130143D01*
X5138333Y-23130143D01*
X5119286Y-23139667D01*
X5205000Y-23253952D02*
X5185952Y-23263476D01*
X5138333Y-23263476D01*
X5119286Y-23253952D01*
X5109762Y-23234905D01*
X5109762Y-23215857D01*
X5119286Y-23196809D01*
X5138333Y-23187286D01*
X5185952Y-23187286D01*
X5205000Y-23177762D01*
X5271667Y-23130143D02*
X5347857Y-23130143D01*
X5300238Y-23063476D02*
X5300238Y-23234905D01*
X5309762Y-23253952D01*
X5328810Y-23263476D01*
X5347857Y-23263476D01*
X5490714Y-23253952D02*
X5471667Y-23263476D01*
X5433571Y-23263476D01*
X5414524Y-23253952D01*
X5405000Y-23234905D01*
X5405000Y-23158714D01*
X5414524Y-23139667D01*
X5433571Y-23130143D01*
X5471667Y-23130143D01*
X5490714Y-23139667D01*
X5500238Y-23158714D01*
X5500238Y-23177762D01*
X5405000Y-23196809D01*
X5671667Y-23263476D02*
X5671667Y-23063476D01*
X5671667Y-23253952D02*
X5652619Y-23263476D01*
X5614524Y-23263476D01*
X5595476Y-23253952D01*
X5585952Y-23244428D01*
X5576429Y-23225381D01*
X5576429Y-23168238D01*
X5585952Y-23149190D01*
X5595476Y-23139667D01*
X5614524Y-23130143D01*
X5652619Y-23130143D01*
X5671667Y-23139667D01*
X5747857Y-23339667D02*
X5757381Y-23330143D01*
X5776428Y-23301571D01*
X5785952Y-23282524D01*
X5795476Y-23253952D01*
X5805000Y-23206333D01*
X5805000Y-23168238D01*
X5795476Y-23120619D01*
X5785952Y-23092048D01*
X5776428Y-23073000D01*
X5757381Y-23044428D01*
X5747857Y-23034905D01*
X-1034289Y-23507711D02*
X-1034289Y-23366289D01*
X-1175711Y-23366289D01*
X-1175711Y-23507711D01*
X-1034289Y-23507711D01*
X-756905Y-23346524D02*
X-747381Y-23337000D01*
X-728333Y-23327476D01*
X-680714Y-23327476D01*
X-661667Y-23337000D01*
X-652143Y-23346524D01*
X-642619Y-23365571D01*
X-642619Y-23384619D01*
X-652143Y-23413190D01*
X-766428Y-23527476D01*
X-642619Y-23527476D01*
X-556905Y-23508428D02*
X-547381Y-23517952D01*
X-556905Y-23527476D01*
X-566429Y-23517952D01*
X-556905Y-23508428D01*
X-556905Y-23527476D01*
X-480714Y-23327476D02*
X-356905Y-23327476D01*
X-423571Y-23403667D01*
X-395000Y-23403667D01*
X-375952Y-23413190D01*
X-366428Y-23422714D01*
X-356905Y-23441762D01*
X-356905Y-23489381D01*
X-366428Y-23508428D01*
X-375952Y-23517952D01*
X-395000Y-23527476D01*
X-452143Y-23527476D01*
X-471190Y-23517952D01*
X-480714Y-23508428D01*
X-261667Y-23527476D02*
X-223571Y-23527476D01*
X-204524Y-23517952D01*
X-195000Y-23508428D01*
X-175952Y-23479857D01*
X-166429Y-23441762D01*
X-166429Y-23365571D01*
X-175952Y-23346524D01*
X-185476Y-23337000D01*
X-204524Y-23327476D01*
X-242619Y-23327476D01*
X-261667Y-23337000D01*
X-271190Y-23346524D01*
X-280714Y-23365571D01*
X-280714Y-23413190D01*
X-271190Y-23432238D01*
X-261667Y-23441762D01*
X-242619Y-23451286D01*
X-204524Y-23451286D01*
X-185476Y-23441762D01*
X-175952Y-23432238D01*
X-166429Y-23413190D01*
X-42619Y-23327476D02*
X-23571Y-23327476D01*
X-4524Y-23337000D01*
X5000Y-23346524D01*
X14524Y-23365571D01*
X24048Y-23403667D01*
X24048Y-23451286D01*
X14524Y-23489381D01*
X5000Y-23508428D01*
X-4524Y-23517952D01*
X-23571Y-23527476D01*
X-42619Y-23527476D01*
X-61667Y-23517952D01*
X-71190Y-23508428D01*
X-80714Y-23489381D01*
X-90238Y-23451286D01*
X-90238Y-23403667D01*
X-80714Y-23365571D01*
X-71190Y-23346524D01*
X-61667Y-23337000D01*
X-42619Y-23327476D01*
X109762Y-23527476D02*
X109762Y-23394143D01*
X109762Y-23413190D02*
X119286Y-23403667D01*
X138333Y-23394143D01*
X166905Y-23394143D01*
X185952Y-23403667D01*
X195476Y-23422714D01*
X195476Y-23527476D01*
X195476Y-23422714D02*
X205000Y-23403667D01*
X224048Y-23394143D01*
X252619Y-23394143D01*
X271667Y-23403667D01*
X281190Y-23422714D01*
X281190Y-23527476D01*
X376428Y-23527476D02*
X376428Y-23394143D01*
X376428Y-23413190D02*
X385952Y-23403667D01*
X405000Y-23394143D01*
X433571Y-23394143D01*
X452619Y-23403667D01*
X462143Y-23422714D01*
X462143Y-23527476D01*
X462143Y-23422714D02*
X471667Y-23403667D01*
X490714Y-23394143D01*
X519286Y-23394143D01*
X538333Y-23403667D01*
X547857Y-23422714D01*
X547857Y-23527476D01*
X938333Y-23317952D02*
X766905Y-23575095D01*
X1195476Y-23327476D02*
X1214524Y-23327476D01*
X1233571Y-23337000D01*
X1243095Y-23346524D01*
X1252619Y-23365571D01*
X1262143Y-23403667D01*
X1262143Y-23451286D01*
X1252619Y-23489381D01*
X1243095Y-23508428D01*
X1233571Y-23517952D01*
X1214524Y-23527476D01*
X1195476Y-23527476D01*
X1176429Y-23517952D01*
X1166905Y-23508428D01*
X1157381Y-23489381D01*
X1147857Y-23451286D01*
X1147857Y-23403667D01*
X1157381Y-23365571D01*
X1166905Y-23346524D01*
X1176429Y-23337000D01*
X1195476Y-23327476D01*
X1347857Y-23508428D02*
X1357381Y-23517952D01*
X1347857Y-23527476D01*
X1338333Y-23517952D01*
X1347857Y-23508428D01*
X1347857Y-23527476D01*
X1481190Y-23327476D02*
X1500238Y-23327476D01*
X1519286Y-23337000D01*
X1528809Y-23346524D01*
X1538333Y-23365571D01*
X1547857Y-23403667D01*
X1547857Y-23451286D01*
X1538333Y-23489381D01*
X1528809Y-23508428D01*
X1519286Y-23517952D01*
X1500238Y-23527476D01*
X1481190Y-23527476D01*
X1462143Y-23517952D01*
X1452619Y-23508428D01*
X1443095Y-23489381D01*
X1433571Y-23451286D01*
X1433571Y-23403667D01*
X1443095Y-23365571D01*
X1452619Y-23346524D01*
X1462143Y-23337000D01*
X1481190Y-23327476D01*
X1643095Y-23527476D02*
X1681190Y-23527476D01*
X1700238Y-23517952D01*
X1709762Y-23508428D01*
X1728809Y-23479857D01*
X1738333Y-23441762D01*
X1738333Y-23365571D01*
X1728809Y-23346524D01*
X1719286Y-23337000D01*
X1700238Y-23327476D01*
X1662143Y-23327476D01*
X1643095Y-23337000D01*
X1633571Y-23346524D01*
X1624048Y-23365571D01*
X1624048Y-23413190D01*
X1633571Y-23432238D01*
X1643095Y-23441762D01*
X1662143Y-23451286D01*
X1700238Y-23451286D01*
X1719286Y-23441762D01*
X1728809Y-23432238D01*
X1738333Y-23413190D01*
X1909762Y-23394143D02*
X1909762Y-23527476D01*
X1862143Y-23317952D02*
X1814524Y-23460809D01*
X1938333Y-23460809D01*
X2119286Y-23527476D02*
X2005000Y-23527476D01*
X2062143Y-23527476D02*
X2062143Y-23327476D01*
X2043095Y-23356048D01*
X2024048Y-23375095D01*
X2005000Y-23384619D01*
X2195476Y-23327476D02*
X2195476Y-23365571D01*
X2271667Y-23327476D02*
X2271667Y-23365571D01*
X2566905Y-23603667D02*
X2557381Y-23594143D01*
X2538333Y-23565571D01*
X2528810Y-23546524D01*
X2519286Y-23517952D01*
X2509762Y-23470333D01*
X2509762Y-23432238D01*
X2519286Y-23384619D01*
X2528810Y-23356048D01*
X2538333Y-23337000D01*
X2557381Y-23308428D01*
X2566905Y-23298905D01*
X2633571Y-23346524D02*
X2643095Y-23337000D01*
X2662143Y-23327476D01*
X2709762Y-23327476D01*
X2728810Y-23337000D01*
X2738333Y-23346524D01*
X2747857Y-23365571D01*
X2747857Y-23384619D01*
X2738333Y-23413190D01*
X2624048Y-23527476D01*
X2747857Y-23527476D01*
X2985952Y-23527476D02*
X2985952Y-23327476D01*
X3071667Y-23527476D02*
X3071667Y-23422714D01*
X3062143Y-23403667D01*
X3043095Y-23394143D01*
X3014524Y-23394143D01*
X2995476Y-23403667D01*
X2985952Y-23413190D01*
X3195476Y-23527476D02*
X3176428Y-23517952D01*
X3166905Y-23508428D01*
X3157381Y-23489381D01*
X3157381Y-23432238D01*
X3166905Y-23413190D01*
X3176428Y-23403667D01*
X3195476Y-23394143D01*
X3224048Y-23394143D01*
X3243095Y-23403667D01*
X3252619Y-23413190D01*
X3262143Y-23432238D01*
X3262143Y-23489381D01*
X3252619Y-23508428D01*
X3243095Y-23517952D01*
X3224048Y-23527476D01*
X3195476Y-23527476D01*
X3376428Y-23527476D02*
X3357381Y-23517952D01*
X3347857Y-23498905D01*
X3347857Y-23327476D01*
X3528809Y-23517952D02*
X3509762Y-23527476D01*
X3471667Y-23527476D01*
X3452619Y-23517952D01*
X3443095Y-23498905D01*
X3443095Y-23422714D01*
X3452619Y-23403667D01*
X3471667Y-23394143D01*
X3509762Y-23394143D01*
X3528809Y-23403667D01*
X3538333Y-23422714D01*
X3538333Y-23441762D01*
X3443095Y-23460809D01*
X3614524Y-23517952D02*
X3633571Y-23527476D01*
X3671667Y-23527476D01*
X3690714Y-23517952D01*
X3700238Y-23498905D01*
X3700238Y-23489381D01*
X3690714Y-23470333D01*
X3671667Y-23460809D01*
X3643095Y-23460809D01*
X3624048Y-23451286D01*
X3614524Y-23432238D01*
X3614524Y-23422714D01*
X3624048Y-23403667D01*
X3643095Y-23394143D01*
X3671667Y-23394143D01*
X3690714Y-23403667D01*
X3766905Y-23603667D02*
X3776428Y-23594143D01*
X3795476Y-23565571D01*
X3805000Y-23546524D01*
X3814524Y-23517952D01*
X3824048Y-23470333D01*
X3824048Y-23432238D01*
X3814524Y-23384619D01*
X3805000Y-23356048D01*
X3795476Y-23337000D01*
X3776428Y-23308428D01*
X3766905Y-23298905D01*
X4128809Y-23603667D02*
X4119286Y-23594143D01*
X4100238Y-23565571D01*
X4090714Y-23546524D01*
X4081190Y-23517952D01*
X4071667Y-23470333D01*
X4071667Y-23432238D01*
X4081190Y-23384619D01*
X4090714Y-23356048D01*
X4100238Y-23337000D01*
X4119286Y-23308428D01*
X4128809Y-23298905D01*
X4205000Y-23394143D02*
X4205000Y-23527476D01*
X4205000Y-23413190D02*
X4214524Y-23403667D01*
X4233571Y-23394143D01*
X4262143Y-23394143D01*
X4281190Y-23403667D01*
X4290714Y-23422714D01*
X4290714Y-23527476D01*
X4414524Y-23527476D02*
X4395476Y-23517952D01*
X4385952Y-23508428D01*
X4376429Y-23489381D01*
X4376429Y-23432238D01*
X4385952Y-23413190D01*
X4395476Y-23403667D01*
X4414524Y-23394143D01*
X4443095Y-23394143D01*
X4462143Y-23403667D01*
X4471667Y-23413190D01*
X4481190Y-23432238D01*
X4481190Y-23489381D01*
X4471667Y-23508428D01*
X4462143Y-23517952D01*
X4443095Y-23527476D01*
X4414524Y-23527476D01*
X4538333Y-23394143D02*
X4614524Y-23394143D01*
X4566905Y-23327476D02*
X4566905Y-23498905D01*
X4576429Y-23517952D01*
X4595476Y-23527476D01*
X4614524Y-23527476D01*
X4833571Y-23394143D02*
X4833571Y-23594143D01*
X4833571Y-23403667D02*
X4852619Y-23394143D01*
X4890714Y-23394143D01*
X4909762Y-23403667D01*
X4919286Y-23413190D01*
X4928810Y-23432238D01*
X4928810Y-23489381D01*
X4919286Y-23508428D01*
X4909762Y-23517952D01*
X4890714Y-23527476D01*
X4852619Y-23527476D01*
X4833571Y-23517952D01*
X5043095Y-23527476D02*
X5024048Y-23517952D01*
X5014524Y-23498905D01*
X5014524Y-23327476D01*
X5205000Y-23527476D02*
X5205000Y-23422714D01*
X5195476Y-23403667D01*
X5176429Y-23394143D01*
X5138333Y-23394143D01*
X5119286Y-23403667D01*
X5205000Y-23517952D02*
X5185952Y-23527476D01*
X5138333Y-23527476D01*
X5119286Y-23517952D01*
X5109762Y-23498905D01*
X5109762Y-23479857D01*
X5119286Y-23460809D01*
X5138333Y-23451286D01*
X5185952Y-23451286D01*
X5205000Y-23441762D01*
X5271667Y-23394143D02*
X5347857Y-23394143D01*
X5300238Y-23327476D02*
X5300238Y-23498905D01*
X5309762Y-23517952D01*
X5328810Y-23527476D01*
X5347857Y-23527476D01*
X5490714Y-23517952D02*
X5471667Y-23527476D01*
X5433571Y-23527476D01*
X5414524Y-23517952D01*
X5405000Y-23498905D01*
X5405000Y-23422714D01*
X5414524Y-23403667D01*
X5433571Y-23394143D01*
X5471667Y-23394143D01*
X5490714Y-23403667D01*
X5500238Y-23422714D01*
X5500238Y-23441762D01*
X5405000Y-23460809D01*
X5671667Y-23527476D02*
X5671667Y-23327476D01*
X5671667Y-23517952D02*
X5652619Y-23527476D01*
X5614524Y-23527476D01*
X5595476Y-23517952D01*
X5585952Y-23508428D01*
X5576429Y-23489381D01*
X5576429Y-23432238D01*
X5585952Y-23413190D01*
X5595476Y-23403667D01*
X5614524Y-23394143D01*
X5652619Y-23394143D01*
X5671667Y-23403667D01*
X5747857Y-23603667D02*
X5757381Y-23594143D01*
X5776428Y-23565571D01*
X5785952Y-23546524D01*
X5795476Y-23517952D01*
X5805000Y-23470333D01*
X5805000Y-23432238D01*
X5795476Y-23384619D01*
X5785952Y-23356048D01*
X5776428Y-23337000D01*
X5757381Y-23308428D01*
X5747857Y-23298905D01*
X-1105000Y-23857000D02*
X-1005000Y-23757000D01*
X-1105000Y-23657000D01*
X-1205000Y-23757000D01*
X-1105000Y-23857000D01*
X-766428Y-23647476D02*
X-642619Y-23647476D01*
X-709286Y-23723667D01*
X-680714Y-23723667D01*
X-661667Y-23733190D01*
X-652143Y-23742714D01*
X-642619Y-23761762D01*
X-642619Y-23809381D01*
X-652143Y-23828428D01*
X-661667Y-23837952D01*
X-680714Y-23847476D01*
X-737857Y-23847476D01*
X-756905Y-23837952D01*
X-766428Y-23828428D01*
X-556905Y-23828428D02*
X-547381Y-23837952D01*
X-556905Y-23847476D01*
X-566429Y-23837952D01*
X-556905Y-23828428D01*
X-556905Y-23847476D01*
X-471190Y-23666524D02*
X-461667Y-23657000D01*
X-442619Y-23647476D01*
X-395000Y-23647476D01*
X-375952Y-23657000D01*
X-366428Y-23666524D01*
X-356905Y-23685571D01*
X-356905Y-23704619D01*
X-366428Y-23733190D01*
X-480714Y-23847476D01*
X-356905Y-23847476D01*
X-233095Y-23647476D02*
X-214048Y-23647476D01*
X-195000Y-23657000D01*
X-185476Y-23666524D01*
X-175952Y-23685571D01*
X-166429Y-23723667D01*
X-166429Y-23771286D01*
X-175952Y-23809381D01*
X-185476Y-23828428D01*
X-195000Y-23837952D01*
X-214048Y-23847476D01*
X-233095Y-23847476D01*
X-252143Y-23837952D01*
X-261667Y-23828428D01*
X-271190Y-23809381D01*
X-280714Y-23771286D01*
X-280714Y-23723667D01*
X-271190Y-23685571D01*
X-261667Y-23666524D01*
X-252143Y-23657000D01*
X-233095Y-23647476D01*
X-42619Y-23647476D02*
X-23571Y-23647476D01*
X-4524Y-23657000D01*
X5000Y-23666524D01*
X14524Y-23685571D01*
X24048Y-23723667D01*
X24048Y-23771286D01*
X14524Y-23809381D01*
X5000Y-23828428D01*
X-4524Y-23837952D01*
X-23571Y-23847476D01*
X-42619Y-23847476D01*
X-61667Y-23837952D01*
X-71190Y-23828428D01*
X-80714Y-23809381D01*
X-90238Y-23771286D01*
X-90238Y-23723667D01*
X-80714Y-23685571D01*
X-71190Y-23666524D01*
X-61667Y-23657000D01*
X-42619Y-23647476D01*
X109762Y-23847476D02*
X109762Y-23714143D01*
X109762Y-23733190D02*
X119286Y-23723667D01*
X138333Y-23714143D01*
X166905Y-23714143D01*
X185952Y-23723667D01*
X195476Y-23742714D01*
X195476Y-23847476D01*
X195476Y-23742714D02*
X205000Y-23723667D01*
X224048Y-23714143D01*
X252619Y-23714143D01*
X271667Y-23723667D01*
X281190Y-23742714D01*
X281190Y-23847476D01*
X376428Y-23847476D02*
X376428Y-23714143D01*
X376428Y-23733190D02*
X385952Y-23723667D01*
X405000Y-23714143D01*
X433571Y-23714143D01*
X452619Y-23723667D01*
X462143Y-23742714D01*
X462143Y-23847476D01*
X462143Y-23742714D02*
X471667Y-23723667D01*
X490714Y-23714143D01*
X519286Y-23714143D01*
X538333Y-23723667D01*
X547857Y-23742714D01*
X547857Y-23847476D01*
X938333Y-23637952D02*
X766905Y-23895095D01*
X1195476Y-23647476D02*
X1214524Y-23647476D01*
X1233571Y-23657000D01*
X1243095Y-23666524D01*
X1252619Y-23685571D01*
X1262143Y-23723667D01*
X1262143Y-23771286D01*
X1252619Y-23809381D01*
X1243095Y-23828428D01*
X1233571Y-23837952D01*
X1214524Y-23847476D01*
X1195476Y-23847476D01*
X1176429Y-23837952D01*
X1166905Y-23828428D01*
X1157381Y-23809381D01*
X1147857Y-23771286D01*
X1147857Y-23723667D01*
X1157381Y-23685571D01*
X1166905Y-23666524D01*
X1176429Y-23657000D01*
X1195476Y-23647476D01*
X1347857Y-23828428D02*
X1357381Y-23837952D01*
X1347857Y-23847476D01*
X1338333Y-23837952D01*
X1347857Y-23828428D01*
X1347857Y-23847476D01*
X1547857Y-23847476D02*
X1433571Y-23847476D01*
X1490714Y-23847476D02*
X1490714Y-23647476D01*
X1471667Y-23676048D01*
X1452619Y-23695095D01*
X1433571Y-23704619D01*
X1624048Y-23666524D02*
X1633571Y-23657000D01*
X1652619Y-23647476D01*
X1700238Y-23647476D01*
X1719286Y-23657000D01*
X1728809Y-23666524D01*
X1738333Y-23685571D01*
X1738333Y-23704619D01*
X1728809Y-23733190D01*
X1614524Y-23847476D01*
X1738333Y-23847476D01*
X1909762Y-23647476D02*
X1871667Y-23647476D01*
X1852619Y-23657000D01*
X1843095Y-23666524D01*
X1824048Y-23695095D01*
X1814524Y-23733190D01*
X1814524Y-23809381D01*
X1824048Y-23828428D01*
X1833571Y-23837952D01*
X1852619Y-23847476D01*
X1890714Y-23847476D01*
X1909762Y-23837952D01*
X1919286Y-23828428D01*
X1928809Y-23809381D01*
X1928809Y-23761762D01*
X1919286Y-23742714D01*
X1909762Y-23733190D01*
X1890714Y-23723667D01*
X1852619Y-23723667D01*
X1833571Y-23733190D01*
X1824048Y-23742714D01*
X1814524Y-23761762D01*
X2052619Y-23647476D02*
X2071667Y-23647476D01*
X2090714Y-23657000D01*
X2100238Y-23666524D01*
X2109762Y-23685571D01*
X2119286Y-23723667D01*
X2119286Y-23771286D01*
X2109762Y-23809381D01*
X2100238Y-23828428D01*
X2090714Y-23837952D01*
X2071667Y-23847476D01*
X2052619Y-23847476D01*
X2033571Y-23837952D01*
X2024048Y-23828428D01*
X2014524Y-23809381D01*
X2005000Y-23771286D01*
X2005000Y-23723667D01*
X2014524Y-23685571D01*
X2024048Y-23666524D01*
X2033571Y-23657000D01*
X2052619Y-23647476D01*
X2195476Y-23647476D02*
X2195476Y-23685571D01*
X2271667Y-23647476D02*
X2271667Y-23685571D01*
X2566905Y-23923667D02*
X2557381Y-23914143D01*
X2538333Y-23885571D01*
X2528810Y-23866524D01*
X2519286Y-23837952D01*
X2509762Y-23790333D01*
X2509762Y-23752238D01*
X2519286Y-23704619D01*
X2528810Y-23676048D01*
X2538333Y-23657000D01*
X2557381Y-23628428D01*
X2566905Y-23618905D01*
X2728810Y-23714143D02*
X2728810Y-23847476D01*
X2681190Y-23637952D02*
X2633571Y-23780809D01*
X2757381Y-23780809D01*
X2985952Y-23847476D02*
X2985952Y-23647476D01*
X3071667Y-23847476D02*
X3071667Y-23742714D01*
X3062143Y-23723667D01*
X3043095Y-23714143D01*
X3014524Y-23714143D01*
X2995476Y-23723667D01*
X2985952Y-23733190D01*
X3195476Y-23847476D02*
X3176428Y-23837952D01*
X3166905Y-23828428D01*
X3157381Y-23809381D01*
X3157381Y-23752238D01*
X3166905Y-23733190D01*
X3176428Y-23723667D01*
X3195476Y-23714143D01*
X3224048Y-23714143D01*
X3243095Y-23723667D01*
X3252619Y-23733190D01*
X3262143Y-23752238D01*
X3262143Y-23809381D01*
X3252619Y-23828428D01*
X3243095Y-23837952D01*
X3224048Y-23847476D01*
X3195476Y-23847476D01*
X3376428Y-23847476D02*
X3357381Y-23837952D01*
X3347857Y-23818905D01*
X3347857Y-23647476D01*
X3528809Y-23837952D02*
X3509762Y-23847476D01*
X3471667Y-23847476D01*
X3452619Y-23837952D01*
X3443095Y-23818905D01*
X3443095Y-23742714D01*
X3452619Y-23723667D01*
X3471667Y-23714143D01*
X3509762Y-23714143D01*
X3528809Y-23723667D01*
X3538333Y-23742714D01*
X3538333Y-23761762D01*
X3443095Y-23780809D01*
X3614524Y-23837952D02*
X3633571Y-23847476D01*
X3671667Y-23847476D01*
X3690714Y-23837952D01*
X3700238Y-23818905D01*
X3700238Y-23809381D01*
X3690714Y-23790333D01*
X3671667Y-23780809D01*
X3643095Y-23780809D01*
X3624048Y-23771286D01*
X3614524Y-23752238D01*
X3614524Y-23742714D01*
X3624048Y-23723667D01*
X3643095Y-23714143D01*
X3671667Y-23714143D01*
X3690714Y-23723667D01*
X3766905Y-23923667D02*
X3776428Y-23914143D01*
X3795476Y-23885571D01*
X3805000Y-23866524D01*
X3814524Y-23837952D01*
X3824048Y-23790333D01*
X3824048Y-23752238D01*
X3814524Y-23704619D01*
X3805000Y-23676048D01*
X3795476Y-23657000D01*
X3776428Y-23628428D01*
X3766905Y-23618905D01*
X4128809Y-23923667D02*
X4119286Y-23914143D01*
X4100238Y-23885571D01*
X4090714Y-23866524D01*
X4081190Y-23837952D01*
X4071667Y-23790333D01*
X4071667Y-23752238D01*
X4081190Y-23704619D01*
X4090714Y-23676048D01*
X4100238Y-23657000D01*
X4119286Y-23628428D01*
X4128809Y-23618905D01*
X4205000Y-23714143D02*
X4205000Y-23847476D01*
X4205000Y-23733190D02*
X4214524Y-23723667D01*
X4233571Y-23714143D01*
X4262143Y-23714143D01*
X4281190Y-23723667D01*
X4290714Y-23742714D01*
X4290714Y-23847476D01*
X4414524Y-23847476D02*
X4395476Y-23837952D01*
X4385952Y-23828428D01*
X4376429Y-23809381D01*
X4376429Y-23752238D01*
X4385952Y-23733190D01*
X4395476Y-23723667D01*
X4414524Y-23714143D01*
X4443095Y-23714143D01*
X4462143Y-23723667D01*
X4471667Y-23733190D01*
X4481190Y-23752238D01*
X4481190Y-23809381D01*
X4471667Y-23828428D01*
X4462143Y-23837952D01*
X4443095Y-23847476D01*
X4414524Y-23847476D01*
X4538333Y-23714143D02*
X4614524Y-23714143D01*
X4566905Y-23647476D02*
X4566905Y-23818905D01*
X4576429Y-23837952D01*
X4595476Y-23847476D01*
X4614524Y-23847476D01*
X4833571Y-23714143D02*
X4833571Y-23914143D01*
X4833571Y-23723667D02*
X4852619Y-23714143D01*
X4890714Y-23714143D01*
X4909762Y-23723667D01*
X4919286Y-23733190D01*
X4928810Y-23752238D01*
X4928810Y-23809381D01*
X4919286Y-23828428D01*
X4909762Y-23837952D01*
X4890714Y-23847476D01*
X4852619Y-23847476D01*
X4833571Y-23837952D01*
X5043095Y-23847476D02*
X5024048Y-23837952D01*
X5014524Y-23818905D01*
X5014524Y-23647476D01*
X5205000Y-23847476D02*
X5205000Y-23742714D01*
X5195476Y-23723667D01*
X5176429Y-23714143D01*
X5138333Y-23714143D01*
X5119286Y-23723667D01*
X5205000Y-23837952D02*
X5185952Y-23847476D01*
X5138333Y-23847476D01*
X5119286Y-23837952D01*
X5109762Y-23818905D01*
X5109762Y-23799857D01*
X5119286Y-23780809D01*
X5138333Y-23771286D01*
X5185952Y-23771286D01*
X5205000Y-23761762D01*
X5271667Y-23714143D02*
X5347857Y-23714143D01*
X5300238Y-23647476D02*
X5300238Y-23818905D01*
X5309762Y-23837952D01*
X5328810Y-23847476D01*
X5347857Y-23847476D01*
X5490714Y-23837952D02*
X5471667Y-23847476D01*
X5433571Y-23847476D01*
X5414524Y-23837952D01*
X5405000Y-23818905D01*
X5405000Y-23742714D01*
X5414524Y-23723667D01*
X5433571Y-23714143D01*
X5471667Y-23714143D01*
X5490714Y-23723667D01*
X5500238Y-23742714D01*
X5500238Y-23761762D01*
X5405000Y-23780809D01*
X5671667Y-23847476D02*
X5671667Y-23647476D01*
X5671667Y-23837952D02*
X5652619Y-23847476D01*
X5614524Y-23847476D01*
X5595476Y-23837952D01*
X5585952Y-23828428D01*
X5576429Y-23809381D01*
X5576429Y-23752238D01*
X5585952Y-23733190D01*
X5595476Y-23723667D01*
X5614524Y-23714143D01*
X5652619Y-23714143D01*
X5671667Y-23723667D01*
X5747857Y-23923667D02*
X5757381Y-23914143D01*
X5776428Y-23885571D01*
X5785952Y-23866524D01*
X5795476Y-23837952D01*
X5805000Y-23790333D01*
X5805000Y-23752238D01*
X5795476Y-23704619D01*
X5785952Y-23676048D01*
X5776428Y-23657000D01*
X5757381Y-23628428D01*
X5747857Y-23618905D01*
X-1205000Y-23977000D02*
X-1005000Y-24177000D01*
X-1005000Y-23977000D02*
X-1205000Y-24177000D01*
X-1005000Y-24077000D02*
G75*
G03*
X-1005000Y-24077000I-100000J0D01*
G01*
X-766428Y-23967476D02*
X-642619Y-23967476D01*
X-709286Y-24043667D01*
X-680714Y-24043667D01*
X-661667Y-24053190D01*
X-652143Y-24062714D01*
X-642619Y-24081762D01*
X-642619Y-24129381D01*
X-652143Y-24148428D01*
X-661667Y-24157952D01*
X-680714Y-24167476D01*
X-737857Y-24167476D01*
X-756905Y-24157952D01*
X-766428Y-24148428D01*
X-556905Y-24148428D02*
X-547381Y-24157952D01*
X-556905Y-24167476D01*
X-566429Y-24157952D01*
X-556905Y-24148428D01*
X-556905Y-24167476D01*
X-375952Y-24034143D02*
X-375952Y-24167476D01*
X-423571Y-23957952D02*
X-471190Y-24100809D01*
X-347381Y-24100809D01*
X-175952Y-23967476D02*
X-271190Y-23967476D01*
X-280714Y-24062714D01*
X-271190Y-24053190D01*
X-252143Y-24043667D01*
X-204524Y-24043667D01*
X-185476Y-24053190D01*
X-175952Y-24062714D01*
X-166429Y-24081762D01*
X-166429Y-24129381D01*
X-175952Y-24148428D01*
X-185476Y-24157952D01*
X-204524Y-24167476D01*
X-252143Y-24167476D01*
X-271190Y-24157952D01*
X-280714Y-24148428D01*
X-42619Y-23967476D02*
X-23571Y-23967476D01*
X-4524Y-23977000D01*
X5000Y-23986524D01*
X14524Y-24005571D01*
X24048Y-24043667D01*
X24048Y-24091286D01*
X14524Y-24129381D01*
X5000Y-24148428D01*
X-4524Y-24157952D01*
X-23571Y-24167476D01*
X-42619Y-24167476D01*
X-61667Y-24157952D01*
X-71190Y-24148428D01*
X-80714Y-24129381D01*
X-90238Y-24091286D01*
X-90238Y-24043667D01*
X-80714Y-24005571D01*
X-71190Y-23986524D01*
X-61667Y-23977000D01*
X-42619Y-23967476D01*
X109762Y-24167476D02*
X109762Y-24034143D01*
X109762Y-24053190D02*
X119286Y-24043667D01*
X138333Y-24034143D01*
X166905Y-24034143D01*
X185952Y-24043667D01*
X195476Y-24062714D01*
X195476Y-24167476D01*
X195476Y-24062714D02*
X205000Y-24043667D01*
X224048Y-24034143D01*
X252619Y-24034143D01*
X271667Y-24043667D01*
X281190Y-24062714D01*
X281190Y-24167476D01*
X376428Y-24167476D02*
X376428Y-24034143D01*
X376428Y-24053190D02*
X385952Y-24043667D01*
X405000Y-24034143D01*
X433571Y-24034143D01*
X452619Y-24043667D01*
X462143Y-24062714D01*
X462143Y-24167476D01*
X462143Y-24062714D02*
X471667Y-24043667D01*
X490714Y-24034143D01*
X519286Y-24034143D01*
X538333Y-24043667D01*
X547857Y-24062714D01*
X547857Y-24167476D01*
X938333Y-23957952D02*
X766905Y-24215095D01*
X1195476Y-23967476D02*
X1214524Y-23967476D01*
X1233571Y-23977000D01*
X1243095Y-23986524D01*
X1252619Y-24005571D01*
X1262143Y-24043667D01*
X1262143Y-24091286D01*
X1252619Y-24129381D01*
X1243095Y-24148428D01*
X1233571Y-24157952D01*
X1214524Y-24167476D01*
X1195476Y-24167476D01*
X1176429Y-24157952D01*
X1166905Y-24148428D01*
X1157381Y-24129381D01*
X1147857Y-24091286D01*
X1147857Y-24043667D01*
X1157381Y-24005571D01*
X1166905Y-23986524D01*
X1176429Y-23977000D01*
X1195476Y-23967476D01*
X1347857Y-24148428D02*
X1357381Y-24157952D01*
X1347857Y-24167476D01*
X1338333Y-24157952D01*
X1347857Y-24148428D01*
X1347857Y-24167476D01*
X1547857Y-24167476D02*
X1433571Y-24167476D01*
X1490714Y-24167476D02*
X1490714Y-23967476D01*
X1471667Y-23996048D01*
X1452619Y-24015095D01*
X1433571Y-24024619D01*
X1614524Y-23967476D02*
X1738333Y-23967476D01*
X1671667Y-24043667D01*
X1700238Y-24043667D01*
X1719286Y-24053190D01*
X1728809Y-24062714D01*
X1738333Y-24081762D01*
X1738333Y-24129381D01*
X1728809Y-24148428D01*
X1719286Y-24157952D01*
X1700238Y-24167476D01*
X1643095Y-24167476D01*
X1624048Y-24157952D01*
X1614524Y-24148428D01*
X1919286Y-23967476D02*
X1824048Y-23967476D01*
X1814524Y-24062714D01*
X1824048Y-24053190D01*
X1843095Y-24043667D01*
X1890714Y-24043667D01*
X1909762Y-24053190D01*
X1919286Y-24062714D01*
X1928809Y-24081762D01*
X1928809Y-24129381D01*
X1919286Y-24148428D01*
X1909762Y-24157952D01*
X1890714Y-24167476D01*
X1843095Y-24167476D01*
X1824048Y-24157952D01*
X1814524Y-24148428D01*
X2043095Y-24053190D02*
X2024048Y-24043667D01*
X2014524Y-24034143D01*
X2005000Y-24015095D01*
X2005000Y-24005571D01*
X2014524Y-23986524D01*
X2024048Y-23977000D01*
X2043095Y-23967476D01*
X2081190Y-23967476D01*
X2100238Y-23977000D01*
X2109762Y-23986524D01*
X2119286Y-24005571D01*
X2119286Y-24015095D01*
X2109762Y-24034143D01*
X2100238Y-24043667D01*
X2081190Y-24053190D01*
X2043095Y-24053190D01*
X2024048Y-24062714D01*
X2014524Y-24072238D01*
X2005000Y-24091286D01*
X2005000Y-24129381D01*
X2014524Y-24148428D01*
X2024048Y-24157952D01*
X2043095Y-24167476D01*
X2081190Y-24167476D01*
X2100238Y-24157952D01*
X2109762Y-24148428D01*
X2119286Y-24129381D01*
X2119286Y-24091286D01*
X2109762Y-24072238D01*
X2100238Y-24062714D01*
X2081190Y-24053190D01*
X2195476Y-23967476D02*
X2195476Y-24005571D01*
X2271667Y-23967476D02*
X2271667Y-24005571D01*
X2566905Y-24243667D02*
X2557381Y-24234143D01*
X2538333Y-24205571D01*
X2528810Y-24186524D01*
X2519286Y-24157952D01*
X2509762Y-24110333D01*
X2509762Y-24072238D01*
X2519286Y-24024619D01*
X2528810Y-23996048D01*
X2538333Y-23977000D01*
X2557381Y-23948428D01*
X2566905Y-23938905D01*
X2728810Y-24034143D02*
X2728810Y-24167476D01*
X2681190Y-23957952D02*
X2633571Y-24100809D01*
X2757381Y-24100809D01*
X2985952Y-24167476D02*
X2985952Y-23967476D01*
X3071667Y-24167476D02*
X3071667Y-24062714D01*
X3062143Y-24043667D01*
X3043095Y-24034143D01*
X3014524Y-24034143D01*
X2995476Y-24043667D01*
X2985952Y-24053190D01*
X3195476Y-24167476D02*
X3176428Y-24157952D01*
X3166905Y-24148428D01*
X3157381Y-24129381D01*
X3157381Y-24072238D01*
X3166905Y-24053190D01*
X3176428Y-24043667D01*
X3195476Y-24034143D01*
X3224048Y-24034143D01*
X3243095Y-24043667D01*
X3252619Y-24053190D01*
X3262143Y-24072238D01*
X3262143Y-24129381D01*
X3252619Y-24148428D01*
X3243095Y-24157952D01*
X3224048Y-24167476D01*
X3195476Y-24167476D01*
X3376428Y-24167476D02*
X3357381Y-24157952D01*
X3347857Y-24138905D01*
X3347857Y-23967476D01*
X3528809Y-24157952D02*
X3509762Y-24167476D01*
X3471667Y-24167476D01*
X3452619Y-24157952D01*
X3443095Y-24138905D01*
X3443095Y-24062714D01*
X3452619Y-24043667D01*
X3471667Y-24034143D01*
X3509762Y-24034143D01*
X3528809Y-24043667D01*
X3538333Y-24062714D01*
X3538333Y-24081762D01*
X3443095Y-24100809D01*
X3614524Y-24157952D02*
X3633571Y-24167476D01*
X3671667Y-24167476D01*
X3690714Y-24157952D01*
X3700238Y-24138905D01*
X3700238Y-24129381D01*
X3690714Y-24110333D01*
X3671667Y-24100809D01*
X3643095Y-24100809D01*
X3624048Y-24091286D01*
X3614524Y-24072238D01*
X3614524Y-24062714D01*
X3624048Y-24043667D01*
X3643095Y-24034143D01*
X3671667Y-24034143D01*
X3690714Y-24043667D01*
X3766905Y-24243667D02*
X3776428Y-24234143D01*
X3795476Y-24205571D01*
X3805000Y-24186524D01*
X3814524Y-24157952D01*
X3824048Y-24110333D01*
X3824048Y-24072238D01*
X3814524Y-24024619D01*
X3805000Y-23996048D01*
X3795476Y-23977000D01*
X3776428Y-23948428D01*
X3766905Y-23938905D01*
X4128809Y-24243667D02*
X4119286Y-24234143D01*
X4100238Y-24205571D01*
X4090714Y-24186524D01*
X4081190Y-24157952D01*
X4071667Y-24110333D01*
X4071667Y-24072238D01*
X4081190Y-24024619D01*
X4090714Y-23996048D01*
X4100238Y-23977000D01*
X4119286Y-23948428D01*
X4128809Y-23938905D01*
X4205000Y-24034143D02*
X4205000Y-24167476D01*
X4205000Y-24053190D02*
X4214524Y-24043667D01*
X4233571Y-24034143D01*
X4262143Y-24034143D01*
X4281190Y-24043667D01*
X4290714Y-24062714D01*
X4290714Y-24167476D01*
X4414524Y-24167476D02*
X4395476Y-24157952D01*
X4385952Y-24148428D01*
X4376429Y-24129381D01*
X4376429Y-24072238D01*
X4385952Y-24053190D01*
X4395476Y-24043667D01*
X4414524Y-24034143D01*
X4443095Y-24034143D01*
X4462143Y-24043667D01*
X4471667Y-24053190D01*
X4481190Y-24072238D01*
X4481190Y-24129381D01*
X4471667Y-24148428D01*
X4462143Y-24157952D01*
X4443095Y-24167476D01*
X4414524Y-24167476D01*
X4538333Y-24034143D02*
X4614524Y-24034143D01*
X4566905Y-23967476D02*
X4566905Y-24138905D01*
X4576429Y-24157952D01*
X4595476Y-24167476D01*
X4614524Y-24167476D01*
X4833571Y-24034143D02*
X4833571Y-24234143D01*
X4833571Y-24043667D02*
X4852619Y-24034143D01*
X4890714Y-24034143D01*
X4909762Y-24043667D01*
X4919286Y-24053190D01*
X4928810Y-24072238D01*
X4928810Y-24129381D01*
X4919286Y-24148428D01*
X4909762Y-24157952D01*
X4890714Y-24167476D01*
X4852619Y-24167476D01*
X4833571Y-24157952D01*
X5043095Y-24167476D02*
X5024048Y-24157952D01*
X5014524Y-24138905D01*
X5014524Y-23967476D01*
X5205000Y-24167476D02*
X5205000Y-24062714D01*
X5195476Y-24043667D01*
X5176429Y-24034143D01*
X5138333Y-24034143D01*
X5119286Y-24043667D01*
X5205000Y-24157952D02*
X5185952Y-24167476D01*
X5138333Y-24167476D01*
X5119286Y-24157952D01*
X5109762Y-24138905D01*
X5109762Y-24119857D01*
X5119286Y-24100809D01*
X5138333Y-24091286D01*
X5185952Y-24091286D01*
X5205000Y-24081762D01*
X5271667Y-24034143D02*
X5347857Y-24034143D01*
X5300238Y-23967476D02*
X5300238Y-24138905D01*
X5309762Y-24157952D01*
X5328810Y-24167476D01*
X5347857Y-24167476D01*
X5490714Y-24157952D02*
X5471667Y-24167476D01*
X5433571Y-24167476D01*
X5414524Y-24157952D01*
X5405000Y-24138905D01*
X5405000Y-24062714D01*
X5414524Y-24043667D01*
X5433571Y-24034143D01*
X5471667Y-24034143D01*
X5490714Y-24043667D01*
X5500238Y-24062714D01*
X5500238Y-24081762D01*
X5405000Y-24100809D01*
X5671667Y-24167476D02*
X5671667Y-23967476D01*
X5671667Y-24157952D02*
X5652619Y-24167476D01*
X5614524Y-24167476D01*
X5595476Y-24157952D01*
X5585952Y-24148428D01*
X5576429Y-24129381D01*
X5576429Y-24072238D01*
X5585952Y-24053190D01*
X5595476Y-24043667D01*
X5614524Y-24034143D01*
X5652619Y-24034143D01*
X5671667Y-24043667D01*
X5747857Y-24243667D02*
X5757381Y-24234143D01*
X5776428Y-24205571D01*
X5785952Y-24186524D01*
X5795476Y-24157952D01*
X5805000Y-24110333D01*
X5805000Y-24072238D01*
X5795476Y-24024619D01*
X5785952Y-23996048D01*
X5776428Y-23977000D01*
X5757381Y-23948428D01*
X5747857Y-23938905D01*
M02*
